<svg xmlns="http://www.w3.org/2000/svg" width="203" height="31" fill="none"><path fill="#000" d="M10.063 30.45q-2.004 0-3.22-.675-1.217-.692-1.872-1.553A24 24 0 0 1 3.96 26.78h-.374V30H.516V2.108h3.182v10.295h.262q.356-.542.992-1.385.636-.861 1.835-1.535 1.197-.674 3.238-.674 2.64 0 4.643 1.33 2.002 1.31 3.126 3.743 1.142 2.415 1.142 5.71 0 3.313-1.123 5.766-1.124 2.433-3.127 3.762t-4.623 1.33m-.412-2.884q2.003 0 3.35-1.067 1.35-1.084 2.022-2.901.693-1.815.693-4.044 0-2.208-.674-3.987T13.02 12.74q-1.329-1.048-3.37-1.048-1.965 0-3.294.992-1.329.975-2.022 2.752-.674 1.76-.674 4.118t.693 4.175q.693 1.797 2.022 2.827 1.347 1.01 3.276 1.01m18.532 2.92q-1.984 0-3.613-.748-1.628-.768-2.583-2.209-.954-1.441-.955-3.482 0-1.797.712-2.901a5 5 0 0 1 1.89-1.76 10 10 0 0 1 2.621-.973q1.441-.319 2.902-.506a200 200 0 0 1 3.088-.374q1.2-.131 1.741-.45.562-.318.562-1.085v-.113q0-2.002-1.105-3.107-1.085-1.123-3.313-1.123-2.283 0-3.594 1.01-1.31.992-1.835 2.135l-3.07-1.086q.825-1.91 2.19-2.977a8.5 8.5 0 0 1 2.996-1.497 12.5 12.5 0 0 1 3.2-.43q1.012 0 2.322.243 1.31.225 2.546.973 1.253.73 2.06 2.228.823 1.48.823 3.968V30h-3.22v-2.845h-.15q-.318.674-1.086 1.46-.767.767-2.04 1.329-1.254.543-3.089.543m.487-2.882q1.91 0 3.22-.749 1.31-.75 1.984-1.928.675-1.199.674-2.49V19.48q-.206.242-.899.449-.673.187-1.572.337-.88.15-1.722.262l-1.348.15q-1.254.168-2.34.543-1.085.355-1.76 1.067-.654.711-.655 1.946 0 1.666 1.236 2.528 1.253.842 3.182.842M41.886 30V9.071h3.07v3.183h.225q.58-1.554 2.078-2.509 1.516-.973 3.388-.973.355 0 .88.019a13 13 0 0 1 .805.018v3.258a11 11 0 0 0-.75-.113 10 10 0 0 0-1.235-.075q-1.515 0-2.714.637a4.9 4.9 0 0 0-1.89 1.74q-.675 1.106-.675 2.528V30zm27.593.487q-1.984 0-3.613-.75-1.629-.766-2.583-2.208-.955-1.441-.955-3.482 0-1.797.711-2.901a5 5 0 0 1 1.891-1.76 10 10 0 0 1 2.62-.973q1.443-.319 2.902-.506a200 200 0 0 1 3.09-.374q1.197-.131 1.74-.45.561-.318.562-1.085v-.113q0-2.002-1.105-3.107-1.086-1.123-3.313-1.123-2.284 0-3.594 1.01-1.31.992-1.835 2.135l-3.07-1.086q.825-1.91 2.19-2.977a8.5 8.5 0 0 1 2.995-1.497 12.5 12.5 0 0 1 3.202-.43q1.01 0 2.32.243 1.311.225 2.547.973 1.254.73 2.059 2.228.823 1.48.823 3.968V30h-3.22v-2.845h-.15q-.317.674-1.085 1.46-.767.767-2.04 1.329-1.255.543-3.09.543m.487-2.883q1.91 0 3.22-.749 1.31-.75 1.984-1.928.674-1.199.674-2.49V19.48q-.207.242-.899.449-.674.187-1.572.337-.88.15-1.723.262l-1.347.15a12 12 0 0 0-2.34.543q-1.086.355-1.76 1.067-.655.711-.655 1.946 0 1.666 1.235 2.528 1.254.842 3.183.842M86.364 17.42V30h-3.182V9.071h3.07v3.295h.3a5.96 5.96 0 0 1 2.227-2.583q1.497-.974 3.875-.974 2.115 0 3.706.861 1.592.862 2.471 2.621.9 1.74.899 4.418V30h-3.182V16.934q0-2.452-1.292-3.838-1.291-1.404-3.52-1.404-1.534 0-2.751.674t-1.928 1.947q-.693 1.272-.693 3.107m25.347 13.03q-2.622 0-4.624-1.33-2.004-1.329-3.126-3.762-1.124-2.453-1.124-5.766 0-3.295 1.124-5.71 1.141-2.433 3.145-3.744 2.002-1.329 4.642-1.329 2.059 0 3.239.674 1.198.674 1.834 1.535.636.843.992 1.385h.262V2.108h3.183V30h-3.07v-3.22h-.375a24 24 0 0 1-1.011 1.442q-.654.861-1.872 1.553-1.198.674-3.219.674m.411-2.884q1.947 0 3.276-1.01 1.329-1.03 2.022-2.827.693-1.815.693-4.175 0-2.358-.674-4.118-.673-1.778-2.022-2.752-1.329-.992-3.295-.992-2.021 0-3.369 1.048-1.348 1.05-2.022 2.827-.674 1.779-.674 3.987 0 2.228.674 4.044.693 1.816 2.041 2.901 1.347 1.068 3.35 1.067m30.701 2.883q-2.92 0-5.055-1.385-2.115-1.404-3.276-3.837-1.141-2.434-1.141-5.56 0-3.202 1.179-5.635 1.179-2.452 3.295-3.838 2.134-1.385 4.96-1.385 2.21 0 3.969.824 1.778.805 2.901 2.284 1.143 1.479 1.404 3.444h-3.219a5 5 0 0 0-.88-1.797q-.637-.842-1.685-1.348-1.03-.525-2.452-.524-1.872 0-3.276.973-1.404.975-2.19 2.752-.787 1.76-.787 4.137 0 2.415.768 4.231.768 1.797 2.171 2.79 1.423.99 3.314.991 1.89 0 3.238-.973 1.348-.992 1.779-2.696h3.219a7.26 7.26 0 0 1-1.347 3.333q-1.068 1.478-2.827 2.358-1.741.861-4.062.861m17.409.038q-1.984 0-3.613-.75-1.629-.766-2.583-2.208-.955-1.441-.955-3.482 0-1.797.712-2.901a5 5 0 0 1 1.89-1.76 10 10 0 0 1 2.621-.973 33 33 0 0 1 2.902-.506q1.908-.243 3.088-.374 1.198-.131 1.741-.45.562-.318.562-1.085v-.113q0-2.002-1.105-3.107-1.086-1.123-3.313-1.123-2.285 0-3.594 1.01-1.31.992-1.835 2.135l-3.07-1.086q.823-1.91 2.19-2.977a8.5 8.5 0 0 1 2.996-1.497 12.5 12.5 0 0 1 3.201-.43q1.01 0 2.321.243 1.31.225 2.546.973 1.254.73 2.059 2.228.824 1.48.824 3.968V30h-3.22v-2.845h-.15q-.318.674-1.086 1.46-.767.767-2.04 1.329-1.254.543-3.089.543m.487-2.883q1.91 0 3.22-.749 1.31-.75 1.984-1.928.674-1.199.674-2.49V19.48q-.206.242-.899.449-.674.187-1.572.337-.88.15-1.722.262l-1.348.15q-1.254.168-2.34.543-1.086.355-1.76 1.067-.655.711-.655 1.946 0 1.666 1.235 2.528 1.255.842 3.183.842M183.22 9.07v2.733h-11.269V9.071zM175.32 30V6.189q0-1.798.843-2.996a5.35 5.35 0 0 1 2.208-1.797 6.9 6.9 0 0 1 2.827-.599q1.199 0 1.947.206.768.188 1.123.356l-.936 2.77a7 7 0 0 0-.674-.206q-.412-.13-1.123-.13-1.591 0-2.321.823-.711.805-.711 2.359V30zm18.533.45q-3.015 0-5.223-1.348-2.19-1.349-3.37-3.763-1.179-2.434-1.179-5.635 0-3.22 1.161-5.672 1.16-2.452 3.257-3.838 2.115-1.385 4.942-1.385 1.629 0 3.238.543a8 8 0 0 1 2.921 1.76q1.329 1.216 2.115 3.22.786 2.002.786 4.923v1.385h-16.136v-2.77h14.395l-1.479 1.048q0-2.097-.655-3.725t-1.965-2.565q-1.292-.936-3.22-.936t-3.314.955a6.15 6.15 0 0 0-2.096 2.452 7.4 7.4 0 0 0-.73 3.257v1.835q0 2.377.823 4.025.825 1.647 2.303 2.508 1.479.842 3.426.842 1.254 0 2.283-.355a4.9 4.9 0 0 0 1.779-1.105q.749-.748 1.142-1.834l3.107.898a6.8 6.8 0 0 1-1.647 2.77q-1.142 1.18-2.846 1.854-1.703.655-3.818.655"/></svg>