<svg xmlns="http://www.w3.org/2000/svg" width="697" height="153" fill="none"><path fill="#000" d="M215.327 119.609q-8.43 0-15.318-3.562-6.768-3.563-10.805-10.331-3.92-6.768-3.919-16.268v-1.543q0-9.5 3.919-16.15 4.037-6.768 10.805-10.33 6.888-3.681 15.318-3.681t14.368 3.087 9.499 8.193a26.9 26.9 0 0 1 4.75 11.281l-11.874 2.494q-.594-3.92-2.494-7.125t-5.343-5.106q-3.443-1.9-8.669-1.9-5.105 0-9.261 2.375-4.037 2.255-6.413 6.65-2.374 4.275-2.374 10.449v1.069q0 6.174 2.374 10.568 2.376 4.393 6.413 6.649 4.156 2.257 9.261 2.257 7.72 0 11.756-3.919 4.038-4.037 5.106-10.212l11.874 2.731a31.1 31.1 0 0 1-5.106 11.162q-3.561 5.106-9.499 8.193-5.937 2.969-14.368 2.969m55.31 0q-6.293 0-11.28-2.137-4.869-2.138-7.837-6.294-2.85-4.156-2.85-10.093 0-6.056 2.85-9.974 2.969-4.037 7.955-6.056 5.106-2.019 11.518-2.019h17.812v-3.8q0-5.106-3.087-8.193t-9.5-3.087q-6.293 0-9.618 2.968-3.325 2.97-4.394 7.719l-11.399-3.681a24.7 24.7 0 0 1 4.512-8.55q3.207-3.918 8.431-6.293 5.225-2.376 12.587-2.375 11.399 0 17.93 5.818 6.531 5.819 6.531 16.505v24.105q0 3.563 3.325 3.563h4.987v10.212h-9.143q-4.156 0-6.769-2.138-2.612-2.137-2.612-5.818v-.356h-1.781q-.95 1.78-2.85 4.156-1.9 2.374-5.581 4.156-3.681 1.662-9.737 1.662m1.781-10.093q7.362 0 11.875-4.156 4.512-4.275 4.512-11.637v-1.187h-17.099q-4.869 0-7.837 2.137-2.969 2.018-2.969 6.056 0 4.037 3.088 6.412t8.43 2.375m49.156 8.431v-48.21h-16.386v-10.33h16.386V46.581q0-5.343 3.206-8.55 3.207-3.206 8.55-3.206h15.08v10.331h-11.162q-3.443 0-3.443 3.562v10.687h16.861v10.33h-16.861v48.211zm60.078 1.662q-8.905 0-15.556-3.681-6.65-3.8-10.449-10.568-3.681-6.887-3.681-15.912v-1.425q0-9.144 3.681-15.911 3.681-6.888 10.212-10.568 6.65-3.8 15.318-3.8 8.43 0 14.724 3.8 6.413 3.68 9.974 10.33 3.563 6.65 3.563 15.556v4.63h-45.004q.237 7.719 5.106 12.35 4.987 4.512 12.349 4.512 6.888 0 10.331-3.087 3.563-3.087 5.462-7.125l10.093 5.225q-1.662 3.325-4.868 7.006-3.087 3.681-8.193 6.174t-13.062 2.494m-17.099-36.93h32.417q-.475-6.648-4.75-10.33-4.275-3.8-11.162-3.8t-11.281 3.8q-4.274 3.681-5.224 10.33m66.836 59.016v-10.568h7.956q3.444 0 3.444-3.562V59.406h12.23v70.534q0 5.343-3.087 8.549t-8.668 3.206zm17.574-90.245q-3.561 0-6.056-2.256-2.374-2.375-2.374-6.056t2.374-5.937q2.495-2.375 6.056-2.375 3.681 0 6.056 2.375 2.375 2.256 2.375 5.937t-2.375 6.056q-2.375 2.256-6.056 2.256m45.694 68.159q-8.786 0-15.674-3.562-6.768-3.681-10.687-10.45t-3.918-16.03v-1.781q0-9.262 3.918-15.912 3.92-6.768 10.687-10.45 6.887-3.68 15.674-3.68t15.674 3.68 10.806 10.45q3.918 6.65 3.918 15.912v1.78q0 9.263-3.918 16.031-3.918 6.769-10.806 10.45-6.887 3.562-15.674 3.562m0-10.924q8.075 0 13.062-5.106 5.106-5.226 5.106-14.368v-1.069q0-9.143-4.987-14.25-4.988-5.224-13.181-5.224-7.956 0-13.062 5.225-4.986 5.106-4.987 14.249v1.069q0 9.142 4.987 14.368 5.106 5.106 13.062 5.106m63.674 10.924q-11.161 0-18.524-4.987-7.362-4.988-9.024-15.08l11.399-2.732q.95 4.869 3.206 7.719 2.256 2.849 5.581 4.037 3.444 1.187 7.362 1.187 5.819 0 8.906-2.256 3.207-2.256 3.206-5.818 0-3.563-2.968-5.225-2.969-1.663-8.787-2.731l-4.038-.713q-5.937-1.068-10.805-3.087-4.869-2.019-7.719-5.58-2.849-3.563-2.849-9.144 0-8.312 6.174-12.824 6.175-4.631 16.387-4.631 9.855 0 16.149 4.512 6.412 4.394 8.312 11.993L568.9 77.455q-1.07-5.343-4.513-7.48-3.443-2.257-8.549-2.257-4.987 0-7.837 1.9-2.85 1.782-2.85 5.106 0 3.563 2.731 5.225 2.85 1.663 7.6 2.493l4.156.713q6.293 1.069 11.518 2.968t8.193 5.463q3.087 3.56 3.087 9.499 0 8.787-6.531 13.655-6.531 4.869-17.574 4.869m59.3 0q-8.907 0-15.556-3.681-6.65-3.8-10.449-10.568-3.681-6.887-3.681-15.912v-1.425q0-9.144 3.681-15.911 3.681-6.888 10.212-10.568 6.65-3.8 15.318-3.8 8.43 0 14.724 3.8 6.412 3.68 9.974 10.33t3.562 15.556v4.63h-45.003q.237 7.719 5.106 12.35 4.987 4.512 12.349 4.512 6.887 0 10.331-3.087 3.562-3.087 5.462-7.125l10.093 5.225q-1.662 3.325-4.868 7.006-3.088 3.681-8.194 6.174t-13.061 2.494m-17.099-36.93h32.416q-.474-6.648-4.749-10.33-4.275-3.8-11.162-3.8t-11.281 3.8q-4.275 3.681-5.224 10.33m62.035 35.268v-48.21H646.18v-10.33h16.387V46.581q0-5.343 3.206-8.55 3.206-3.206 8.549-3.206h15.08v10.331h-11.161q-3.444 0-3.444 3.562v10.687h16.862v10.33h-16.862v48.211zM53.41 24.908l14.667.028L81.693 35.8l13.07-10.892h15.631c8.793 0 15.923 7.13 15.923 15.923v86.944H37.46V40.859c0-8.793 7.13-15.923 15.923-15.923z"/><path fill="#000" d="M163.714 112.059a9.8 9.8 0 0 1-6.916 9.368l-36.494 11.25c-25.427 7.831-52.337 7.803-77.738-.113l-35.68-11.122A9.8 9.8 0 0 1 0 112.083v-10.675c0-6.611 6.41-11.327 12.72-9.36l29.846 9.304c25.4 7.915 52.311 7.943 77.738.112l30.719-9.469c6.305-1.943 12.691 2.77 12.691 9.369z"/></svg>