<svg xmlns="http://www.w3.org/2000/svg" width="269" height="72" fill="none"><path fill="#000" d="M83.049 59.158q-3.243 0-5.892-1.37-2.602-1.37-4.156-3.974-1.507-2.603-1.507-6.257v-.594q0-3.653 1.507-6.21 1.552-2.603 4.156-3.974 2.649-1.416 5.892-1.416 3.242 0 5.526 1.188t3.653 3.15a10.35 10.35 0 0 1 1.827 4.34L89.488 45a7.5 7.5 0 0 0-.959-2.74q-.73-1.234-2.055-1.964-1.324-.732-3.334-.731-1.965 0-3.562.913-1.553.868-2.466 2.558-.915 1.644-.914 4.019v.41q0 2.376.914 4.066.912 1.69 2.466 2.557 1.598.867 3.562.868 2.969 0 4.521-1.507 1.553-1.553 1.964-3.928l4.567 1.05a12 12 0 0 1-1.964 4.293q-1.369 1.965-3.653 3.152-2.284 1.141-5.526 1.142m21.273 0q-2.42 0-4.339-.823-1.872-.822-3.014-2.42-1.095-1.599-1.096-3.882 0-2.33 1.096-3.837 1.142-1.552 3.06-2.329 1.964-.776 4.43-.776h6.85v-1.462q0-1.964-1.187-3.15-1.188-1.188-3.654-1.188-2.42 0-3.699 1.142-1.28 1.14-1.69 2.968l-4.384-1.416a9.5 9.5 0 0 1 1.735-3.288q1.233-1.508 3.243-2.42 2.01-.915 4.841-.914 4.385 0 6.896 2.238t2.512 6.348v9.271q0 1.37 1.279 1.37h1.918v3.928h-3.517q-1.598 0-2.603-.822t-1.005-2.238v-.137h-.685q-.365.686-1.096 1.599-.73.912-2.146 1.598-1.416.64-3.745.64m.685-3.883q2.832 0 4.567-1.598 1.735-1.644 1.735-4.476v-.456h-6.576q-1.873 0-3.014.822-1.142.776-1.142 2.329 0 1.552 1.187 2.466 1.188.913 3.243.913m18.906 3.243V39.976h-6.303v-3.974h6.303V31.07q0-2.055 1.233-3.288t3.288-1.233h5.8v3.973h-4.293q-1.324 0-1.324 1.37v4.11h6.485v3.974h-6.485v18.542zm23.107.64q-3.426 0-5.983-1.416a10.5 10.5 0 0 1-4.019-4.065q-1.416-2.649-1.416-6.12v-.548q0-3.516 1.416-6.12 1.416-2.648 3.928-4.064 2.557-1.462 5.891-1.462 3.243 0 5.663 1.462 2.466 1.416 3.836 3.973 1.371 2.558 1.371 5.983v1.78h-17.31q.092 2.97 1.964 4.75 1.918 1.736 4.75 1.736 2.649 0 3.973-1.187a8.25 8.25 0 0 0 2.101-2.74l3.882 2.009q-.639 1.278-1.872 2.695-1.187 1.415-3.152 2.374-1.963.96-5.023.96m-6.577-14.204h12.468q-.183-2.558-1.827-3.973-1.644-1.462-4.293-1.462t-4.338 1.462q-1.644 1.416-2.01 3.973m25.707 22.698v-4.065h3.059q1.325 0 1.325-1.37V36.003h4.704V63.13q0 2.055-1.187 3.288t-3.334 1.233zm6.759-34.71q-1.37 0-2.329-.867-.914-.915-.914-2.33t.914-2.283q.958-.913 2.329-.913 1.416 0 2.329.913.913.868.913 2.284t-.913 2.329q-.913.867-2.329.868m17.574 26.216q-3.38 0-6.028-1.37-2.604-1.416-4.111-4.02-1.507-2.602-1.507-6.165v-.685q0-3.562 1.507-6.12 1.507-2.603 4.111-4.02 2.649-1.415 6.028-1.415 3.38 0 6.029 1.416a10.35 10.35 0 0 1 4.156 4.019q1.507 2.557 1.507 6.12v.685q0 3.563-1.507 6.165a10.35 10.35 0 0 1-4.156 4.02q-2.65 1.37-6.029 1.37m0-4.202q3.106 0 5.024-1.964 1.964-2.01 1.964-5.526v-.411q0-3.517-1.918-5.48-1.918-2.01-5.07-2.01-3.06 0-5.023 2.01-1.919 1.963-1.919 5.48v.41q0 3.517 1.919 5.527 1.963 1.965 5.023 1.964m24.49 4.201q-4.293 0-7.124-1.918-2.832-1.918-3.471-5.8l4.384-1.05q.366 1.873 1.233 2.968a4.7 4.7 0 0 0 2.147 1.553 8.6 8.6 0 0 0 2.831.457q2.238 0 3.426-.868 1.233-.867 1.233-2.238t-1.142-2.01-3.38-1.05l-1.552-.274q-2.284-.411-4.156-1.187-1.873-.776-2.969-2.147t-1.096-3.516q0-3.198 2.375-4.933 2.375-1.78 6.302-1.78 3.791 0 6.211 1.735 2.467 1.69 3.197 4.612l-4.384 1.233q-.41-2.055-1.735-2.877-1.324-.867-3.289-.867-1.917 0-3.014.73-1.096.685-1.096 1.964 0 1.37 1.05 2.01 1.096.638 2.923.959l1.599.274q2.42.41 4.43 1.141t3.151 2.101q1.188 1.371 1.187 3.654 0 3.38-2.511 5.252-2.512 1.873-6.76 1.873m22.808 0q-3.426 0-5.983-1.415a10.5 10.5 0 0 1-4.019-4.065q-1.416-2.649-1.416-6.12v-.548q0-3.516 1.416-6.12 1.416-2.648 3.928-4.064 2.557-1.462 5.891-1.462 3.243 0 5.663 1.462 2.466 1.416 3.837 3.973t1.37 5.983v1.78h-17.309q.09 2.97 1.963 4.75 1.918 1.736 4.75 1.736 2.649 0 3.973-1.187a8.25 8.25 0 0 0 2.101-2.74l3.882 2.009q-.639 1.278-1.872 2.695-1.188 1.415-3.151 2.374-1.965.96-5.024.96m-6.577-14.203h12.468q-.182-2.558-1.827-3.973-1.644-1.462-4.293-1.462t-4.338 1.462q-1.644 1.416-2.01 3.973m23.86 13.564V39.976h-6.303v-3.974h6.303V31.07q0-2.055 1.233-3.288t3.288-1.233h5.8v3.973h-4.293q-1.324 0-1.324 1.37v4.11h6.485v3.974h-6.485v18.542zM20.773 22.734l5.641.01 5.237 4.179 5.027-4.19h6.012a6.125 6.125 0 0 1 6.124 6.125v33.44H14.638v-33.43a6.125 6.125 0 0 1 6.124-6.123z"/><path fill="#000" d="M63.197 56.254a3.77 3.77 0 0 1-2.66 3.603l-14.036 4.326a50.34 50.34 0 0 1-29.9-.043L2.88 59.862a3.77 3.77 0 0 1-2.649-3.6v-4.105c0-2.543 2.466-4.357 4.893-3.6l11.479 3.578a50.34 50.34 0 0 0 29.9.044l11.814-3.642c2.425-.748 4.881 1.065 4.881 3.603zM193.331 15.019q-.77 0-1.238-.26a2.3 2.3 0 0 1-.72-.597 9 9 0 0 1-.389-.554h-.144v1.238h-1.181V4.118h1.224v3.96h.101q.137-.21.382-.533.245-.33.705-.59.462-.26 1.246-.26 1.015 0 1.786.512.77.504 1.202 1.44.44.929.439 2.196 0 1.275-.432 2.217-.432.936-1.202 1.448-.771.51-1.779.51m-.158-1.109q.77 0 1.289-.41a2.5 2.5 0 0 0 .777-1.116q.267-.699.267-1.556 0-.849-.259-1.533a2.43 2.43 0 0 0-.778-1.087q-.512-.404-1.296-.404-.756 0-1.267.382-.511.374-.778 1.058-.26.678-.259 1.584 0 .907.266 1.606.267.69.778 1.087.519.39 1.26.389m7.128 1.123a3.3 3.3 0 0 1-1.39-.288 2.4 2.4 0 0 1-.993-.85q-.368-.553-.368-1.339 0-.69.274-1.116.274-.432.727-.676a3.8 3.8 0 0 1 1.008-.375q.555-.122 1.116-.194.735-.094 1.188-.144.461-.05.67-.173.216-.122.216-.418v-.043q0-.77-.425-1.195-.417-.432-1.274-.432-.879 0-1.383.389-.504.381-.705.82l-1.181-.417q.317-.734.842-1.145a3.25 3.25 0 0 1 1.152-.576q.627-.165 1.231-.165.39 0 .893.093.505.087.979.375.483.28.792.856.318.57.317 1.527v5.299h-1.238v-1.094h-.058q-.122.259-.417.561a2.6 2.6 0 0 1-.785.511q-.483.21-1.188.21m.187-1.109q.734 0 1.238-.288t.764-.741q.258-.461.259-.958V10.8q-.08.093-.346.172a6 6 0 0 1-.605.13 18 18 0 0 1-.662.1l-.518.058a4.6 4.6 0 0 0-.9.21 1.6 1.6 0 0 0-.677.41q-.252.274-.252.748 0 .642.475.972.483.324 1.224.324m5.083.922v-8.05h1.181V8.02h.086q.224-.598.8-.964.582-.375 1.303-.375.137 0 .338.007.202 0 .31.008v1.252a4 4 0 0 0-.763-.072 2.2 2.2 0 0 0-1.044.245q-.462.245-.728.67a1.84 1.84 0 0 0-.259.972v5.083zm10.613.187a3.3 3.3 0 0 1-1.39-.288 2.4 2.4 0 0 1-.993-.85q-.368-.553-.368-1.339 0-.69.274-1.116.273-.432.727-.676a3.8 3.8 0 0 1 1.008-.375q.555-.122 1.116-.194.735-.094 1.188-.144.461-.05.67-.173.216-.122.216-.418v-.043q0-.77-.425-1.195-.417-.432-1.274-.432-.879 0-1.383.389-.504.381-.705.82l-1.181-.417q.317-.734.842-1.145a3.25 3.25 0 0 1 1.152-.576q.627-.165 1.231-.165.39 0 .893.093.504.087.979.375.483.28.792.856.317.57.317 1.527v5.299h-1.238v-1.094h-.058q-.122.259-.417.561a2.6 2.6 0 0 1-.785.511q-.483.21-1.188.21m.187-1.109q.734 0 1.238-.288t.764-.741q.259-.461.259-.958V10.8q-.08.093-.346.172a6 6 0 0 1-.605.13 18 18 0 0 1-.662.1l-.518.058a4.6 4.6 0 0 0-.9.21 1.6 1.6 0 0 0-.677.41q-.252.274-.252.748 0 .642.475.972.483.324 1.224.324m6.307-3.916v4.838h-1.224v-8.05h1.181v1.268h.115q.28-.62.857-.994.576-.375 1.49-.374.814 0 1.426.33.612.333.95 1.009.346.67.346 1.699v5.112h-1.224V9.82q0-.942-.497-1.476-.496-.54-1.354-.54-.59 0-1.058.26a1.9 1.9 0 0 0-.742.748q-.266.49-.266 1.196m9.749 5.01q-1.008 0-1.779-.51-.77-.512-1.202-1.448-.432-.943-.432-2.217 0-1.267.432-2.196.44-.936 1.21-1.44.77-.51 1.785-.511.792 0 1.246.259.46.26.705.59.246.324.382.533h.101v-3.96h1.224v10.728h-1.181v-1.238h-.144a9 9 0 0 1-.389.554q-.252.33-.72.597-.46.26-1.238.26m.158-1.108q.748 0 1.26-.389.511-.396.778-1.087.266-.698.266-1.606 0-.906-.259-1.584-.26-.684-.778-1.058-.51-.381-1.267-.382-.777 0-1.296.404a2.43 2.43 0 0 0-.777 1.087q-.26.684-.26 1.533 0 .857.26 1.556.266.697.784 1.116.52.41 1.289.41m11.808 1.109q-1.124 0-1.944-.533a3.6 3.6 0 0 1-1.26-1.476q-.44-.936-.439-2.138 0-1.232.453-2.168.454-.942 1.268-1.476.82-.532 1.908-.532.85 0 1.526.316.684.31 1.116.879.44.568.54 1.325h-1.238a1.95 1.95 0 0 0-.339-.692 1.74 1.74 0 0 0-.648-.518q-.396-.202-.943-.202-.72 0-1.26.375t-.842 1.058q-.303.677-.303 1.591 0 .93.295 1.628.296.69.836 1.072.546.382 1.274.382.727 0 1.246-.374.518-.382.684-1.037h1.238q-.1.712-.518 1.281-.41.57-1.088.908-.67.33-1.562.33m6.696.014a3.3 3.3 0 0 1-1.39-.288 2.4 2.4 0 0 1-.993-.85q-.368-.553-.368-1.339 0-.69.274-1.116.273-.432.727-.676a3.8 3.8 0 0 1 1.008-.375q.555-.122 1.116-.194.735-.094 1.188-.144.461-.05.67-.173.216-.122.216-.418v-.043q0-.77-.425-1.195-.417-.432-1.274-.432-.879 0-1.383.389-.504.381-.705.82l-1.181-.417q.317-.734.842-1.145a3.25 3.25 0 0 1 1.152-.576q.627-.165 1.231-.165.39 0 .893.093.505.087.979.375.483.28.792.856.318.57.317 1.527v5.299h-1.238v-1.094h-.058q-.122.259-.417.561a2.6 2.6 0 0 1-.785.511q-.483.21-1.188.21m.187-1.109q.734 0 1.238-.288t.764-.741q.258-.461.259-.958V10.8q-.08.093-.346.172a6 6 0 0 1-.605.13 18 18 0 0 1-.662.1l-.518.058a4.6 4.6 0 0 0-.9.21 1.6 1.6 0 0 0-.677.41q-.252.274-.252.748 0 .642.475.972.483.324 1.224.324m8.654-7.128v1.052h-4.334V6.796zm-3.038 8.05V5.688q0-.691.324-1.152.331-.461.85-.691t1.087-.23q.46 0 .749.078.294.072.432.137l-.36 1.066a3 3 0 0 0-.26-.08 1.5 1.5 0 0 0-.432-.05q-.612 0-.892.317-.274.31-.274.907v8.856zm7.128.173q-1.16 0-2.009-.519a3.4 3.4 0 0 1-1.296-1.447q-.453-.936-.453-2.167 0-1.239.446-2.182t1.253-1.476q.813-.532 1.9-.532.627 0 1.246.208.62.21 1.123.677.511.468.814 1.239.302.77.302 1.893v.533h-6.206V10.18h5.537l-.569.404q0-.807-.252-1.433a2.2 2.2 0 0 0-.756-.987q-.497-.36-1.239-.36-.741 0-1.274.368-.525.36-.806.943a2.84 2.84 0 0 0-.281 1.253v.705q0 .915.317 1.548.317.634.885.965.569.324 1.318.324.482 0 .878-.137.396-.143.684-.425.288-.288.439-.705l1.196.345a2.6 2.6 0 0 1-.634 1.066q-.44.453-1.094.713a4.1 4.1 0 0 1-1.469.252"/></svg>