<?xml version="1.0" encoding="UTF-8"?>
<svg id="Layer_1" xmlns="http://www.w3.org/2000/svg" version="1.1" viewBox="0 0 1024 1024">
  <!-- Generator: Adobe Illustrator 29.2.1, SVG Export Plug-In . SVG Version: 2.1.0 Build 116)  -->
  <defs>
    <style>
      .st0 {
        fill: #fff;
      }
    </style>
  </defs>
  <path class="st0" d="M253.65,112.75c46.94-.08,93.93.16,140.87.12l.04-46.95,234.78.2-.04,46.95c46.94.12,93.93-.04,140.87.12.02,15.64-.05,31.32-.04,46.96,15.64.03,31.32-.01,46.96.03.02,15.64-.05,31.32-.04,46.96,15.64.03,31.32-.01,46.96.03.02,15.64-.05,31.32-.04,46.96,15.64.03,31.32-.01,46.96.03.05,31.29-.1,62.62-.08,93.91,15.64.03,31.32-.01,46.96.03.04,109.54-.05,219.13-.27,328.67-15.64.02-31.32-.05-46.96-.04-.07,31.29.03,62.62-.07,93.91-15.64.02-31.32-.05-46.96-.04-.03,15.64.01,31.32-.03,46.96-15.64.02-31.32-.05-46.96-.04-.03,15.64.01,31.32-.03,46.96-31.29.05-62.63-.11-93.91-.08l-.04,46.95-93.91-.08c-.02,15.63-.02,31.32-.04,46.95-78.24-.02-156.54-.09-234.78-.2l.04-46.95-93.91-.08.04-46.95c-31.29-.08-62.63.02-93.91-.08-.02-15.64.05-31.32.04-46.96-15.64-.03-31.32.01-46.96-.03-.02-15.64.05-31.32.04-46.96-15.64-.03-31.32.01-46.96-.03-.05-31.29.1-62.62.08-93.91-15.64-.03-31.32.01-46.96-.03-.04-109.54.05-219.13.27-328.67,15.64-.02,31.32.05,46.96.04.07-31.29-.03-62.62.07-93.91,15.64-.02,31.32.05,46.96.04.03-15.64-.01-31.32.03-46.96,15.64-.02,31.32.05,46.96.04.03-15.64-.01-31.32.03-46.96,15.64-.02,31.32.05,46.96.04.03-15.64-.01-31.32.03-46.96ZM394.41,253.72l-46.96-.04-.04,46.95-46.96-.04-.12,140.86,46.96.04-.04,46.95,46.96.04.04-46.95,46.96.04.12-140.86-46.96-.04.04-46.95ZM676.15,253.95l-46.96-.04-.04,46.95-46.96-.04-.12,140.86,46.96.04-.04,46.95,46.96.04.04-46.95,46.96.04.12-140.86-46.96-.04.04-46.95ZM769.75,629.65c15.64-.02,31.32.05,46.96.04l.04-46.95,46.96.04.04-46.95-46.96-.04.04-46.95-93.91-.08-.04,46.95,46.96.04-.08,93.9c-15.64.02-31.32-.05-46.96-.04l-.04,46.95-46.96-.04-.04,46.95-46.96-.04c-.04,15.63,0,31.32-.04,46.95-78.24.03-156.54-.04-234.78-.2-.02-15.63.05-31.32.04-46.95l-46.96-.04.04-46.95-46.96-.04.04-46.95-46.96-.04.08-93.9-93.91-.08-.04,46.95,46.96.04-.08,93.9,46.96.04-.04,46.95,46.96.04-.04,46.95c31.29.05,62.63.01,93.91.08.02,15.63-.05,31.32-.04,46.95l234.78.2c.04-15.63,0-31.32.04-46.95,31.29-.01,62.63.08,93.91.08l.04-46.95,46.96.04.08-93.9Z"/>
  <path d="M253.32,112.96c.03-15.63-.03-31.32,0-46.95h93.91V19.06h328.7v46.95h93.91c.03,15.63-.03,31.32,0,46.95-46.94-.11-93.93.09-140.87,0v-46.95h-234.78v46.95c-46.94.09-93.93-.11-140.87,0Z"/>
  <path d="M253.32,112.96c-.03,15.64.02,31.32,0,46.96-15.64.02-31.32-.04-46.96,0,.03-15.64-.02-31.32,0-46.96,15.64-.02,31.32.04,46.96,0Z"/>
  <path d="M769.84,112.96c15.64.04,31.32-.02,46.96,0,.02,15.64-.04,31.32,0,46.96-15.64-.03-31.32.02-46.96,0-.02-15.64.04-31.32,0-46.96Z"/>
  <path d="M206.37,159.91c-.03,15.64.02,31.32,0,46.96-15.64.02-31.32-.04-46.96,0,.03-15.64-.02-31.32,0-46.96,15.64-.02,31.32.04,46.96,0Z"/>
  <path d="M816.8,159.91c15.64.03,31.32-.02,46.96,0,.02,15.64-.04,31.32,0,46.96-15.64-.03-31.32.02-46.96,0-.02-15.64.04-31.32,0-46.96Z"/>
  <path d="M159.41,206.86c-.03,15.64.02,31.32,0,46.96-15.64.02-31.32-.04-46.96,0,.04-15.64-.02-31.32,0-46.96,15.64-.02,31.32.04,46.96,0Z"/>
  <path d="M863.76,206.86c15.64.03,31.32-.02,46.96,0,.02,15.64-.04,31.32,0,46.96-15.64-.03-31.32.02-46.96,0-.02-15.64.04-31.32,0-46.96Z"/>
  <path d="M112.45,253.82c-.08,31.29.05,62.62,0,93.91-15.64.02-31.32-.04-46.96,0,.04-31.29-.02-62.62,0-93.91,15.64-.02,31.32.04,46.96,0Z"/>
  <path d="M628.97,958.1c0,15.63,0,31.32,0,46.95h-234.78v-46.95c78.24.04,156.54.04,234.78,0Z"/>
  <path d="M816.8,864.2c-.03,15.63.03,31.32,0,46.95h-46.96v46.95c-46.94.02-93.93-.03-140.87,0,0-15.63,0-31.32,0-46.95h93.91v-46.95c31.29-.06,62.63.08,93.91,0Z"/>
  <path d="M910.71,253.82c15.64.03,31.32-.02,46.96,0,.02,31.29-.04,62.62,0,93.91-15.64-.03-31.32.02-46.96,0-.05-31.29.08-62.62,0-93.91Z"/>
  <path d="M65.5,347.72c-.13,109.54-.13,219.13,0,328.67-15.64-.03-31.32.03-46.96,0v-328.67c15.64-.03,31.32.03,46.96,0Z"/>
  <path d="M957.67,347.72c15.64.03,31.32-.03,46.96,0v328.67c-15.64.03-31.32-.03-46.96,0,.13-109.54.13-219.13,0-328.67Z"/>
  <path d="M206.37,864.2c31.29.08,62.63-.06,93.91,0v46.95h93.91v46.95c-46.94-.03-93.93.02-140.87,0v-46.95h-46.96c-.03-15.63.03-31.32,0-46.95Z"/>
  <path d="M65.5,676.39c15.64.03,31.32-.02,46.96,0,.05,31.29-.08,62.62,0,93.91-15.64-.03-31.32.02-46.96,0-.02-31.29.04-62.62,0-93.91Z"/>
  <path d="M957.67,676.39c-.04,31.29.02,62.62,0,93.91-15.64.02-31.32-.04-46.96,0,.08-31.29-.05-62.62,0-93.91,15.64-.02,31.32.04,46.96,0Z"/>
  <path d="M112.45,770.29c15.64.03,31.32-.02,46.96,0,.02,15.64-.04,31.32,0,46.96-15.64-.03-31.32.02-46.96,0-.02-15.64.04-31.32,0-46.96Z"/>
  <path d="M910.71,770.29c-.04,15.64.02,31.32,0,46.96-15.64.02-31.32-.04-46.96,0,.03-15.64-.02-31.32,0-46.96,15.64-.02,31.32.04,46.96,0Z"/>
  <path d="M159.41,817.25c15.64.03,31.32-.02,46.96,0,.02,15.64-.04,31.32,0,46.96-15.64-.04-31.32.02-46.96,0-.02-15.64.04-31.32,0-46.96Z"/>
  <path d="M863.76,817.25c-.03,15.64.02,31.32,0,46.96-15.64.02-31.32-.04-46.96,0,.03-15.64-.02-31.32,0-46.96,15.64-.02,31.32.04,46.96,0Z"/>
  <polygon points="394.19 253.82 394.19 300.77 441.15 300.77 441.15 441.63 394.19 441.63 394.19 488.58 347.24 488.58 347.24 441.63 300.28 441.63 300.28 300.77 347.24 300.77 347.24 253.82 394.19 253.82"/>
  <polygon points="675.93 253.82 675.93 300.77 722.89 300.77 722.89 441.63 675.93 441.63 675.93 488.58 628.97 488.58 628.97 441.63 582.02 441.63 582.02 300.77 628.97 300.77 628.97 253.82 675.93 253.82"/>
  <path d="M769.84,629.44v-93.9h-46.96v-46.95h93.91v46.95h46.96v46.95h-46.96v46.95c-15.64.03-31.32-.04-46.96,0v93.9h-46.96v46.95c-31.29.03-62.63-.04-93.91,0-.04,15.63.03,31.32,0,46.95h-234.78c-.03-15.63.04-31.32,0-46.95-31.29-.04-62.63.03-93.91,0v-46.95h-46.96v-46.95h-46.96v-93.9h-46.96v-46.95h93.91v93.9h46.96v46.95h46.96v46.95h46.96c.03,15.63-.04,31.32,0,46.95,78.24.09,156.54.09,234.78,0,.04-15.63-.03-31.32,0-46.95h46.96v-46.95h46.96v-46.95c15.64-.03,31.32.04,46.96,0Z"/>
</svg>