<svg xmlns="http://www.w3.org/2000/svg" width="510" height="213" fill="none"><path fill="#fff" d="M28.274 24.784 22.56 7.84H16.85v56.544h5.712l5.713-16.944H45.12L28.274 70H16.849L0 47.44V24.784L16.85 2.224h11.425l16.847 22.56zm38.992 39.6L78.69 47.44V7.84L67.266 24.784zM78.69.288l16.847 24.496V47.44L78.691 71.936H67.266L50.419 47.44V24.784L67.266.288zm22.007 1.936h16.847l5.713 25.658h5.712V2.224l16.848 25.658V70H128.97l-5.712-31.08h-5.713V70l-16.847-22.56zm85.128 22.56L180.113 7.84h-5.712v56.544h5.712l5.713-16.944h16.847L185.826 70h-11.425l-16.848-22.56V24.784l16.848-22.56h11.425l16.847 22.56zm48.48 0L228.594 7.84h-5.713v20.042h11.425v15.492h-11.425v21.01h5.713l5.712-16.944h16.848L234.306 70h-11.425l-16.847-22.56V24.784l16.847-22.56h11.425l16.848 22.56zm41.453 18.59V70l-16.847-22.56V24.784l16.847-22.56h10.36l17.912 22.56V30.4l-17.912 12.974zm14.911-7.746V24.784L281.472 8.71h-5.713v16.073l5.713 10.844zm35.143-33.404h11.426l16.847 22.56h-17.913v39.6L331.526 70l-5.713-5.616v-39.6h-16.847zm55.708 0-2.42 22.56V47.44l6.39 16.944h6.39v-39.6l-2.42-22.56h2.42l15.685 22.56-.193 22.656L390.526 70h-11.425l-16.848-22.56V24.784l16.848-22.56zm32.495 45.216V24.784l16.848-23.431h11.425l16.847 23.43V47.44L442.289 71.26V35.628h-11.425v35.63zm28.273-22.656L436.576 7.84h-5.712v16.944zM492.6 2.224l-11.425 22.56v39.6h5.712l5.713-8.423h16.847L492.6 70h-11.425l-16.847-5.616v-39.6l16.847-22.56zM46.96 95.784l-16.847 10.844L46.96 118.44 30.113 141H18.688L1.841 118.44V95.784l16.847-22.56h11.425zm-16.847 0L24.401 78.84h-5.713v20.042h11.425zm-11.425 39.6h5.713l5.712-16.944H18.688zm47.557-21.01V141l-16.847-22.56V95.784l16.847-22.56h10.36l17.913 22.56v5.616l-17.913 12.974L94.518 141H81.156zm14.911-7.746V95.784L71.958 79.71h-5.713v16.073l5.713 10.844zm16.622 11.812V95.784l16.847-23.431h11.425l16.847 23.43v22.657l-16.847 23.819v-35.631h-11.425v35.631zm28.272-22.656-5.713-16.944h-5.712v16.944zm24.266-22.56h16.847l5.713 25.658h5.712V73.224l16.847 25.658V141h-16.847l-5.712-31.08h-5.713V141l-16.847-22.56zm75.542 45.216 5.712 16.944h5.713V98.882L231.57 78.84h-5.712zM237.283 141h-28.272V73.224h28.272l16.847 25.658v19.558zM1.841 166.784l17.04-22.56h11.426l16.653 22.56-28.078 22.656v16.944h5.712l15.201-16.944h7.165V212H1.841v-22.56l28.466-22.656V149.84h-5.713l-5.712 16.944zm54.44 0 17.04-22.56h11.426l16.653 22.56-12.2 5.616h12.394L84.747 212H73.322L56.28 189.44h10.941l11.812 16.944h5.713l.194-26.723H73.515l11.232-12.877V149.84h-5.713l-5.712 16.944zm69.641-7.165V172.4h11.425v-22.56h-5.712zm0 29.821 5.713 16.944h5.712v-22.559h-11.425l-16.653-7.262v-9.779l16.653-22.56h11.425l17.041 22.56v22.656L137.347 212h-11.425l-16.653-22.56zM204.985 212h-16.653v-26.626h-11.425l-17.041-5.713v-12.877l22.753-22.56h22.366zm-22.366-62.16-5.712 27.788h11.425V149.84zm44.951-5.616h11.426l16.653 22.56v5.616l-13.362 5.809 13.362 5.809v5.616l-16.653 22.56H227.57l-17.04-22.56v-5.616l13.652-5.809-13.652-5.809v-5.616zm5.713 5.616-5.713 22.56h11.426v-22.56zm0 56.544 5.713-21.01H227.57v21.01zm25.111-16.944v-22.656l16.654-22.56h11.425l17.04 22.56v22.656L286.473 212h-11.425zm17.041 0 5.325 16.944h5.713v-39.6l-5.326-16.944h-5.712zm78.781-9.779v9.779L337.563 212h-11.425l-17.041-22.56h17.041l5.712 16.944h5.713v-26.723l-23.141-12.877 5.616-22.56h34.178v19.365h-7.164L331.85 149.84h-5.712v16.944zM408.656 212h-16.653v-26.626h-11.425l-17.041-5.713v-12.877l22.753-22.56h22.366zm-22.366-62.16-5.712 27.788h11.425V149.84zm44.952-5.616h11.425l16.653 22.56v5.616l-13.361 5.809 13.361 5.809v5.616l-16.653 22.56h-11.425l-17.041-22.56v-5.616l13.652-5.809-13.652-5.809v-5.616zm5.712 5.616-5.712 22.56h11.425v-22.56zm0 56.544 5.713-21.01h-11.425v21.01zm25.111-16.944v-22.656l16.654-22.56h11.425l17.041 22.56v22.656L490.144 212h-11.425zm17.041 0 5.325 16.944h5.713v-39.6l-5.325-16.944h-5.713z"/></svg>