<svg width="404" height="169" viewBox="0 0 404 169" fill="none" xmlns="http://www.w3.org/2000/svg">
<path d="M22.748 20.2189L18.2274 6.81054H13.7069V51.5561H18.2274L22.748 38.1478H36.0797L22.748 56H13.7069L0.375192 38.1478V20.2189L13.7069 2.36664H22.748L36.0797 20.2189H22.748ZM53.6039 51.5561L62.645 38.1478V6.81054L53.6039 20.2189V51.5561ZM62.645 0.834255L75.9767 20.2189V38.1478L62.645 57.5324H53.6039L40.2722 38.1478V20.2189L53.6039 0.834255H62.645ZM80.0602 2.36664H93.392L97.9125 22.6707H102.433V2.36664L115.765 22.6707V56H102.433L97.9125 31.4053H93.392V56L80.0602 38.1478V2.36664ZM147.425 20.2189L142.904 6.81054H138.384V51.5561H142.904L147.425 38.1478H160.756L147.425 56H138.384L125.052 38.1478V20.2189L138.384 2.36664H147.425L160.756 20.2189H147.425ZM185.789 20.2189L181.269 6.81054H176.748V22.6707H185.789V34.9298H176.748V51.5561H181.269L185.789 38.1478H199.121L185.789 56H176.748L163.416 38.1478V20.2189L176.748 2.36664H185.789L199.121 20.2189H185.789ZM218.592 34.9298V56L205.261 38.1478V20.2189L218.592 2.36664H226.791L240.965 20.2189V24.6628L226.791 34.9298H218.592ZM230.392 28.8002V20.2189L223.113 7.50012H218.592V20.2189L223.113 28.8002H230.392ZM258.202 2.36664H267.243L280.575 20.2189H266.4V51.5561L262.723 56L258.202 51.5561V20.2189H244.87L258.202 2.36664ZM302.286 2.36664L300.37 20.2189V38.1478L305.427 51.5561H310.484V20.2189L308.568 2.36664H310.484L322.896 20.2189L322.743 38.1478L309.411 56H300.37L287.038 38.1478V20.2189L300.37 2.36664H302.286ZM328 38.1478V20.2189L341.332 1.67706H350.373L363.705 20.2189V38.1478L350.373 56.996V28.8002H341.332V56.996L328 38.1478ZM350.373 20.2189L345.852 6.81054H341.332V20.2189H350.373ZM390.186 2.36664L381.145 20.2189V51.5561H385.666L390.186 44.8902H403.518L390.186 56H381.145L367.813 51.5561V20.2189L381.145 2.36664H390.186ZM37.5355 76.2189L24.2037 84.8002L37.5355 94.1478L24.2037 112H15.1627L1.83095 94.1478V76.2189L15.1627 58.3666H24.2037L37.5355 76.2189ZM24.2037 76.2189L19.6832 62.8105H15.1627V78.6707H24.2037V76.2189ZM15.1627 107.556H19.6832L24.2037 94.1478H15.1627V107.556ZM52.7964 90.9298V112L39.4647 94.1478V76.2189L52.7964 58.3666H60.9947L75.1692 76.2189V80.6628L60.9947 90.9298L75.1692 112H64.5958L52.7964 90.9298ZM64.5958 84.8002V76.2189L57.3169 63.5001H52.7964V76.2189L57.3169 84.8002H64.5958ZM77.7491 94.1478V76.2189L91.0808 57.6771H100.122L113.454 76.2189V94.1478L100.122 112.996V84.8002H91.0808V112.996L77.7491 94.1478ZM100.122 76.2189L95.6013 62.8105H91.0808V76.2189H100.122ZM119.325 58.3666H132.656L137.177 78.6707H141.697V58.3666L155.029 78.6707V112H141.697L137.177 87.4053H132.656V112L119.325 94.1478V58.3666ZM179.104 94.1478L183.624 107.556H188.145V78.6707L183.624 62.8105H179.104V94.1478ZM188.145 112H165.772V58.3666H188.145L201.476 78.6707V94.1478L188.145 112ZM1.83095 132.219L15.3159 114.367H24.357L37.5355 132.219L15.3159 150.148V163.556H19.8364L31.8656 150.148H37.5355V168H1.83095V150.148L24.357 132.219V118.811H19.8364L15.3159 132.219H1.83095ZM44.9112 132.219L58.3962 114.367H67.4372L80.6157 132.219L70.9617 136.663H80.769L67.4372 168H58.3962L44.9112 150.148H53.5692L62.9167 163.556H67.4372L67.5905 142.409H58.5494L67.4372 132.219V118.811H62.9167L58.3962 132.219H44.9112ZM100.021 126.549V136.663H109.062V118.811H104.541L100.021 126.549ZM100.021 150.148L104.541 163.556H109.062V145.704H100.021L86.8422 139.957V132.219L100.021 114.367H109.062L122.547 132.219V150.148L109.062 168H100.021L86.8422 150.148H100.021ZM162.586 168H149.408V146.93H140.367L126.882 142.409V132.219L144.887 114.367H162.586V168ZM144.887 118.811L140.367 140.8H149.408V118.811H144.887ZM180.459 114.367H189.5L202.678 132.219V136.663L192.105 141.26L202.678 145.857V150.301L189.5 168.153H180.459L166.974 150.301V145.857L177.777 141.26L166.974 136.663V132.219L180.459 114.367ZM184.979 118.811L180.459 136.663H189.5V118.811H184.979ZM184.979 163.556L189.5 146.93H180.459V163.556H184.979ZM204.851 150.148V132.219L218.029 114.367H227.07L240.555 132.219V150.148L227.07 168H218.029L204.851 150.148ZM218.336 150.148L222.55 163.556H227.07V132.219L222.856 118.811H218.336V150.148ZM280.678 142.409V150.148L267.5 168H258.459L244.974 150.148H258.459L262.979 163.556H267.5V142.409L249.188 132.219L253.632 114.367H280.678V129.69H275.009L262.979 118.811H258.459V132.219L280.678 142.409ZM323.759 168H310.58V146.93H301.539L288.054 142.409V132.219L306.06 114.367H323.759V168ZM306.06 118.811L301.539 140.8H310.58V118.811H306.06ZM341.631 114.367H350.672L363.851 132.219V136.663L353.277 141.26L363.851 145.857V150.301L350.672 168.153H341.631L328.146 150.301V145.857L338.95 141.26L328.146 136.663V132.219L341.631 114.367ZM346.152 118.811L341.631 136.663H350.672V118.811H346.152ZM346.152 163.556L350.672 146.93H341.631V163.556H346.152ZM366.023 150.148V132.219L379.202 114.367H388.243L401.728 132.219V150.148L388.243 168H379.202L366.023 150.148ZM379.508 150.148L383.722 163.556H388.243V132.219L384.029 118.811H379.508V150.148Z" fill="#DD447C"/>
</svg>
