<svg xmlns="http://www.w3.org/2000/svg" width="428" height="250" fill="none"><path fill="#050505" d="M27.766 85.745V185H4.144V62.745h23.622v16.991c1.865-11.396 7.875-18.649 18.235-18.649 10.982 0 16.577 9.117 16.577 19.893V185H38.956V85.745c0-4.558-1.658-7.874-5.388-7.874-3.522 0-5.802 3.316-5.802 7.874m100.553 51.596v20.1c0 18.856-10.982 29.217-28.181 29.217-18.234 0-29.63-10.568-29.63-29.424V90.719c0-18.857 11.396-29.632 29.009-29.632 17.82 0 28.802 10.568 28.802 29.632v36.469H94.544v30.046c0 6.838 2.28 11.189 8.495 11.189 5.595 0 8.496-4.559 8.496-13.469v-17.613zM94.544 88.025v23.829h10.153v-23.83c0-6.008-1.036-10.36-5.18-10.36-3.937 0-4.973 4.352-4.973 10.36M169.73 185l-9.117-35.433h-.415L151.082 185h-21.757l18.856-63.407-16.991-58.848h23.207l7.46 31.289h.414l7.46-31.29h21.55l-16.991 57.813L192.939 185zm61.453-23.001V62.745h23.829V185h-23.829v-16.991c-1.658 11.396-7.667 18.649-18.027 18.649-10.983 0-16.37-9.118-16.37-19.893V62.745h23.622v99.254c0 4.559 1.45 7.875 4.973 7.875 3.73 0 5.802-3.316 5.802-7.875m54.557-27.559-10.775-8.703c-8.082-6.838-13.055-13.676-13.055-24.451V89.89c0-18.65 10.775-28.803 28.181-28.803s26.523 10.568 26.523 27.352v20.307h-21.343V88.025c0-6.01-1.243-10.36-5.18-10.36s-4.973 4.35-4.973 10.36v9.946c0 6.423 3.315 9.324 8.496 14.298l10.775 9.324c7.874 6.424 12.847 13.469 12.847 25.073v11.811c0 18.649-10.982 28.181-28.595 28.181s-27.145-10.568-27.145-27.352v-21.343h21.55v21.964c0 6.009 1.658 10.154 5.595 10.154s5.18-4.145 5.18-10.154v-11.604c0-5.387-2.487-8.91-8.081-13.883"/><path fill="#000" d="M3.798 212h-2.34v-12.852h5.508c3.006 0 4.77 1.404 4.77 4.032 0 1.998-1.278 3.186-2.736 3.654L12.222 212h-2.61l-2.934-4.806h-2.88zm0-6.678h2.898c1.782 0 2.682-.738 2.682-2.142s-.9-2.142-2.682-2.142H3.798zM21.726 212H12.42v-12.852h9.234v1.89H14.76v3.582h6.102v1.89H14.76v3.6h6.966zm.724 0v-12.852h2.394V212zm11.14 0h-1.728l-3.672-10.098h-.036V212h-2.196v-12.852h3.384l3.456 9.666h.036l3.456-9.666h3.276V212H37.28v-10.098h-.036zm16.415 0-1.206-3.15h-5.796L41.78 212h-2.34l5.166-12.852h2.682L52.453 212zm-4.104-10.548-2.16 5.544h4.338l-2.124-5.544zm5.234 4.104c0-3.96 2.538-6.624 6.21-6.624 3.096 0 4.86 1.692 5.364 4.23H60.35c-.306-1.44-1.278-2.34-3.006-2.34-2.394 0-3.78 1.818-3.78 4.734 0 2.934 1.35 4.77 3.744 4.77 1.89 0 3.186-1.116 3.186-2.7v-.45H58.01v-1.728h4.86V212h-1.854l-.162-1.836c-.468 1.224-2.106 2.052-3.69 2.052-3.6 0-6.03-2.682-6.03-6.66M63.765 212v-12.852h2.394V212zm6.299-12.852 6.048 9.108h.036v-9.108h2.268V212h-2.214l-6.606-9.954h-.036V212h-2.286v-12.852zM79.537 212v-12.852h2.393V212zm6.298-12.852 6.048 9.108h.036v-9.108h2.268V212h-2.214l-6.606-9.954h-.036V212h-2.286v-12.852zm8.77 6.408c0-3.96 2.539-6.624 6.211-6.624 3.096 0 4.86 1.692 5.364 4.23h-2.358c-.306-1.44-1.278-2.34-3.006-2.34-2.394 0-3.78 1.818-3.78 4.734 0 2.934 1.35 4.77 3.744 4.77 1.89 0 3.186-1.116 3.186-2.7v-.45h-2.484v-1.728h4.86V212h-1.854l-.162-1.836c-.468 1.224-2.106 2.052-3.69 2.052-3.6 0-6.03-2.682-6.03-6.66M113.05 212v-10.962h-4.608v-1.89h11.61v1.89h-4.626V212zm7.339 0v-12.852h2.394v5.4h6.588v-5.4h2.376V212h-2.376v-5.58h-6.588V212zm21.78 0h-9.306v-12.852h9.234v1.89h-6.894v3.582h6.102v1.89h-6.102v3.6h6.966zm10.335 0h-1.728l-3.672-10.098h-.036V212h-2.196v-12.852h3.384l3.456 9.666h.036l3.456-9.666h3.276V212h-2.286v-10.098h-.036zm16.415 0-1.206-3.15h-5.796l-1.224 3.15h-2.34l5.166-12.852h2.682L171.366 212zm-4.104-10.548-2.16 5.544h4.338l-2.124-5.544zm5.233 4.104c0-3.96 2.538-6.624 6.21-6.624 3.096 0 4.86 1.692 5.364 4.23h-2.358c-.306-1.44-1.278-2.34-3.006-2.34-2.394 0-3.78 1.818-3.78 4.734 0 2.934 1.35 4.77 3.744 4.77 1.89 0 3.186-1.116 3.186-2.7v-.45h-2.484v-1.728h4.86V212h-1.854l-.162-1.836c-.468 1.224-2.106 2.052-3.69 2.052-3.6 0-6.03-2.682-6.03-6.66M191.984 212l-1.206-3.15h-5.796l-1.224 3.15h-2.34l5.166-12.852h2.682L194.432 212zm-4.104-10.548-2.16 5.544h4.338l-2.124-5.544zm16.202-.504-7.434 9.162h7.542V212h-10.494v-1.674l7.47-9.288h-7.236v-1.89h10.152zm.625 11.052v-12.852h2.394V212zm6.298-12.852 6.048 9.108h.036v-9.108h2.268V212h-2.214l-6.606-9.954h-.036V212h-2.286v-12.852zM229.784 212h-9.306v-12.852h9.234v1.89h-6.894v3.582h6.102v1.89h-6.102v3.6h6.966zm2.703 0v-12.852h8.874v1.89h-6.48v3.924h5.814v1.89h-5.814V212zm20.884-6.426c0 3.87-2.358 6.642-6.138 6.642s-6.138-2.772-6.138-6.642c0-3.852 2.358-6.642 6.138-6.642s6.138 2.79 6.138 6.642m-2.43 0c0-2.844-1.26-4.752-3.708-4.752-2.466 0-3.708 1.908-3.708 4.752 0 2.862 1.242 4.752 3.708 4.752 2.448 0 3.708-1.89 3.708-4.752M256.1 212h-2.34v-12.852h5.508c3.006 0 4.77 1.404 4.77 4.032 0 1.998-1.278 3.186-2.736 3.654l3.222 5.166h-2.61l-2.934-4.806h-2.88zm0-6.678h2.898c1.782 0 2.682-.738 2.682-2.142s-.9-2.142-2.682-2.142H256.1zM270.535 212v-10.962h-4.608v-1.89h11.61v1.89h-4.626V212zm7.339 0v-12.852h2.394v5.4h6.588v-5.4h2.376V212h-2.376v-5.58h-6.588V212zm21.779 0h-9.306v-12.852h9.234v1.89h-6.894v3.582h6.102v1.89h-6.102v3.6h6.966zm7.654-12.852c3.87 0 6.426 2.574 6.426 6.426 0 3.87-2.556 6.426-6.426 6.426h-4.95v-12.852zm0 1.89h-2.61v9.072h2.61c2.556 0 3.978-1.674 3.978-4.536s-1.422-4.536-3.978-4.536m6.82 10.962v-12.852h2.394V212zm2.807-6.444c0-3.96 2.538-6.624 6.21-6.624 3.096 0 4.86 1.692 5.364 4.23h-2.358c-.306-1.44-1.278-2.34-3.006-2.34-2.394 0-3.78 1.818-3.78 4.734 0 2.934 1.35 4.77 3.744 4.77 1.89 0 3.186-1.116 3.186-2.7v-.45h-2.484v-1.728h4.86V212h-1.854l-.162-1.836c-.468 1.224-2.106 2.052-3.69 2.052-3.6 0-6.03-2.682-6.03-6.66m12.63 6.444v-12.852h2.394V212zm7.343 0v-10.962h-4.608v-1.89h11.61v1.89h-4.626V212zm15.432 0-1.206-3.15h-5.796l-1.224 3.15h-2.34l5.166-12.852h2.682L354.787 212zm-4.104-10.548-2.16 5.544h4.338l-2.124-5.544zM354.662 212v-12.852h2.394v10.962h6.624V212zm20.876 0-1.206-3.15h-5.796l-1.224 3.15h-2.34l5.166-12.852h2.682L377.986 212zm-4.104-10.548-2.16 5.544h4.338l-2.124-5.544zm5.234 4.104c0-3.96 2.538-6.624 6.21-6.624 3.096 0 4.86 1.692 5.364 4.23h-2.358c-.306-1.44-1.278-2.34-3.006-2.34-2.394 0-3.78 1.818-3.78 4.734 0 2.934 1.35 4.77 3.744 4.77 1.89 0 3.186-1.116 3.186-2.7v-.45h-2.484v-1.728h4.86V212h-1.854l-.162-1.836c-.468 1.224-2.106 2.052-3.69 2.052-3.6 0-6.03-2.682-6.03-6.66M398.604 212h-9.306v-12.852h9.234v1.89h-6.894v3.582h6.102v1.89h-6.102v3.6h6.966zm1.273 0v-2.682h2.682V212zM7.092 230H1.458v-12.852h5.166c3.006 0 4.644 1.206 4.644 3.51 0 1.134-.9 2.376-1.944 2.682 1.404.378 2.466 1.512 2.466 3.006 0 2.412-1.728 3.654-4.698 3.654m-3.294-7.416h2.808c1.602 0 2.358-.72 2.358-1.836 0-1.17-.774-1.836-2.34-1.836H3.798zm0 1.71v3.942h3.114c1.656 0 2.52-.738 2.52-1.98 0-1.206-.882-1.962-2.538-1.962zm20.055-.72c0 3.87-2.358 6.642-6.138 6.642s-6.138-2.772-6.138-6.642c0-3.852 2.358-6.642 6.138-6.642s6.138 2.79 6.138 6.642m-2.43 0c0-2.844-1.26-4.752-3.708-4.752-2.466 0-3.708 1.908-3.708 4.752 0 2.862 1.242 4.752 3.708 4.752 2.448 0 3.708-1.89 3.708-4.752m2.82 6.426v-12.852h2.394v10.962h6.624V230zm14.54-12.852c3.87 0 6.426 2.574 6.426 6.426 0 3.87-2.556 6.426-6.426 6.426h-4.95v-12.852zm0 1.89h-2.61v9.072h2.61c2.556 0 3.978-1.674 3.978-4.536s-1.422-4.536-3.978-4.536m8.8 10.962v-12.852h2.394V230zm8.459-12.852c3.87 0 6.426 2.574 6.426 6.426 0 3.87-2.556 6.426-6.426 6.426h-4.95v-12.852zm0 1.89h-2.61v9.072h2.61c2.556 0 3.978-1.674 3.978-4.536s-1.422-4.536-3.978-4.536M72.168 230h-9.306v-12.852h9.234v1.89h-6.894v3.582h6.102v1.89h-6.102v3.6h6.966zm10.03 0-1.206-3.15h-5.796L73.972 230h-2.34l5.166-12.852h2.682L84.646 230zm-4.104-10.548-2.16 5.544h4.338l-2.124-5.544zm5.547 6.66h2.303c.162 1.746 1.674 2.34 3.276 2.34 1.53 0 2.719-.684 2.719-1.98 0-.936-.558-1.458-2.106-1.746l-2.358-.432c-1.89-.342-3.42-1.242-3.42-3.492 0-2.286 2.015-3.87 4.823-3.87 3.06 0 4.897 1.332 5.148 3.744h-2.25c-.161-1.26-1.277-1.962-2.88-1.962-1.547 0-2.52.81-2.52 1.944 0 1.062.666 1.404 2.052 1.674l2.484.486c2.106.396 3.366 1.44 3.366 3.51 0 2.34-2.142 3.888-4.986 3.888-3.06 0-5.418-1.278-5.651-4.104m11.002 3.816v-2.61h2.682v2.862c0 1.8-1.17 2.826-3.078 2.826v-1.242c.972 0 1.62-.342 1.62-1.584v-.252zm5.924.072v-12.852h8.874v1.89h-6.48v3.924h5.814v1.89h-5.814V230zm11.878 0h-2.34v-12.852h5.508c3.006 0 4.77 1.404 4.77 4.032 0 1.998-1.278 3.186-2.736 3.654l3.222 5.166h-2.61l-2.934-4.806h-2.88zm0-6.678h2.898c1.782 0 2.682-.738 2.682-2.142s-.9-2.142-2.682-2.142h-2.898zM130.373 230h-9.306v-12.852h9.234v1.89h-6.894v3.582h6.102v1.89h-6.102v3.6h6.966zm-.157-3.888h2.304c.162 1.746 1.674 2.34 3.276 2.34 1.53 0 2.718-.684 2.718-1.98 0-.936-.558-1.458-2.106-1.746l-2.358-.432c-1.89-.342-3.42-1.242-3.42-3.492 0-2.286 2.016-3.87 4.824-3.87 3.06 0 4.896 1.332 5.148 3.744h-2.25c-.162-1.26-1.278-1.962-2.88-1.962-1.548 0-2.52.81-2.52 1.944 0 1.062.666 1.404 2.052 1.674l2.484.486c2.106.396 3.366 1.44 3.366 3.51 0 2.34-2.142 3.888-4.986 3.888-3.06 0-5.418-1.278-5.652-4.104M141.267 230v-12.852h2.394v5.4h6.588v-5.4h2.376V230h-2.376v-5.58h-6.588V230zm19.781-4.734h-2.988V230h-2.34v-12.852h5.31c3.042 0 4.806 1.386 4.806 4.068s-1.764 4.05-4.788 4.05m-2.988-1.872h2.772c1.764 0 2.646-.72 2.646-2.178 0-1.476-.882-2.178-2.646-2.178h-2.772zM175.373 230h-9.306v-12.852h9.234v1.89h-6.894v3.582h6.102v1.89h-6.102v3.6h6.966zm3.064 0h-2.34v-12.852h5.508c3.006 0 4.77 1.404 4.77 4.032 0 1.998-1.278 3.186-2.736 3.654l3.222 5.166h-2.61l-2.934-4.806h-2.88zm0-6.678h2.898c1.782 0 2.682-.738 2.682-2.142s-.9-2.142-2.682-2.142h-2.898zm7.775 2.79h2.304c.162 1.746 1.674 2.34 3.276 2.34 1.53 0 2.718-.684 2.718-1.98 0-.936-.558-1.458-2.106-1.746l-2.358-.432c-1.89-.342-3.42-1.242-3.42-3.492 0-2.286 2.016-3.87 4.824-3.87 3.06 0 4.896 1.332 5.148 3.744h-2.25c-.162-1.26-1.278-1.962-2.88-1.962-1.548 0-2.52.81-2.52 1.944 0 1.062.666 1.404 2.052 1.674l2.484.486c2.106.396 3.366 1.44 3.366 3.51 0 2.34-2.142 3.888-4.986 3.888-3.06 0-5.418-1.278-5.652-4.104m16.38-.846h-2.988V230h-2.34v-12.852h5.31c3.042 0 4.806 1.386 4.806 4.068s-1.764 4.05-4.788 4.05m-2.988-1.872h2.772c1.764 0 2.646-.72 2.646-2.178 0-1.476-.882-2.178-2.646-2.178h-2.772zM216.917 230h-9.306v-12.852h9.234v1.89h-6.894v3.582h6.102v1.89h-6.102v3.6h6.966zm2.452-6.444c0 2.934 1.296 4.77 3.618 4.77 1.836 0 2.682-1.044 2.934-2.358h2.322c-.45 2.502-2.178 4.248-5.256 4.248-3.6 0-6.048-2.664-6.048-6.66 0-3.96 2.448-6.624 6.048-6.624 3.078 0 4.806 1.728 5.256 4.248h-2.322c-.252-1.314-1.098-2.358-2.934-2.358-2.322 0-3.618 1.818-3.618 4.734M232.208 230v-10.962H227.6v-1.89h11.61v1.89h-4.626V230zm7.339 0v-12.852h2.394V230zm7.324 0-5.076-12.852h2.538l3.906 10.296h.036l3.924-10.296h2.43L249.535 230zm16.944 0h-9.306v-12.852h9.234v1.89h-6.894v3.582h6.102v1.89h-6.102v3.6h6.966zm-.157-3.888h2.304c.162 1.746 1.674 2.34 3.276 2.34 1.53 0 2.718-.684 2.718-1.98 0-.936-.558-1.458-2.106-1.746l-2.358-.432c-1.89-.342-3.42-1.242-3.42-3.492 0-2.286 2.016-3.87 4.824-3.87 3.06 0 4.896 1.332 5.148 3.744h-2.25c-.162-1.26-1.278-1.962-2.88-1.962-1.548 0-2.52.81-2.52 1.944 0 1.062.666 1.404 2.052 1.674l2.484.486c2.106.396 3.366 1.44 3.366 3.51 0 2.34-2.142 3.888-4.986 3.888-3.06 0-5.418-1.278-5.652-4.104m11.003 3.816v-2.61h2.682v2.862c0 1.8-1.17 2.826-3.078 2.826v-1.242c.972 0 1.62-.342 1.62-1.584v-.252zm15.23.072-1.206-3.15h-5.796l-1.224 3.15h-2.34l5.166-12.852h2.682L292.339 230zm-4.104-10.548-2.16 5.544h4.338l-2.124-5.544zm9.217-2.304 6.048 9.108h.036v-9.108h2.268V230h-2.214l-6.606-9.954h-.036V230h-2.286v-12.852zm14.423 0c3.87 0 6.426 2.574 6.426 6.426 0 3.87-2.556 6.426-6.426 6.426h-4.95v-12.852zm0 1.89h-2.61v9.072h2.61c2.556 0 3.978-1.674 3.978-4.536s-1.422-4.536-3.978-4.536m10.527 4.518c0 2.934 1.296 4.77 3.618 4.77 1.836 0 2.682-1.044 2.934-2.358h2.322c-.45 2.502-2.178 4.248-5.256 4.248-3.6 0-6.048-2.664-6.048-6.66 0-3.96 2.448-6.624 6.048-6.624 3.078 0 4.806 1.728 5.256 4.248h-2.322c-.252-1.314-1.098-2.358-2.934-2.358-2.322 0-3.618 1.818-3.618 4.734m19.999 1.26c0 3.51-2.016 5.4-5.49 5.4-3.456 0-5.49-1.89-5.49-5.436v-7.632h2.394v7.65c0 2.25 1.026 3.51 3.096 3.51s3.114-1.26 3.114-3.51v-7.65h2.376zm.953 5.184v-12.852h2.394v10.962h6.624V230zm11.368 0v-10.962h-4.608v-1.89h11.61v1.89h-4.626V230zm18.156-5.184c0 3.51-2.016 5.4-5.49 5.4-3.456 0-5.49-1.89-5.49-5.436v-7.632h2.394v7.65c0 2.25 1.026 3.51 3.096 3.51s3.114-1.26 3.114-3.51v-7.65h2.376zm3.293 5.184h-2.34v-12.852h5.508c3.006 0 4.77 1.404 4.77 4.032 0 1.998-1.278 3.186-2.736 3.654l3.222 5.166h-2.61l-2.934-4.806h-2.88zm0-6.678h2.898c1.782 0 2.682-.738 2.682-2.142s-.9-2.142-2.682-2.142h-2.898zM391.65 230h-9.306v-12.852h9.234v1.89h-6.894v3.582h6.102v1.89h-6.102v3.6h6.966zm.832-4.158v-1.926h5.04v1.926zM6.408 235.148c3.87 0 6.426 2.574 6.426 6.426 0 3.87-2.556 6.426-6.426 6.426h-4.95v-12.852zm0 1.89h-2.61v9.072h2.61c2.556 0 3.978-1.674 3.978-4.536s-1.422-4.536-3.978-4.536M22.534 248h-9.306v-12.852h9.234v1.89h-6.894v3.582h6.102v1.89h-6.102v3.6h6.966zm.724 0v-12.852h8.874v1.89h-6.48v3.924h5.814v1.89h-5.814V248zm9.538 0v-12.852h2.394V248zm6.299-12.852 6.048 9.108h.036v-9.108h2.268V248h-2.214l-6.606-9.954h-.036V248h-2.286v-12.852zM48.567 248v-12.852h2.394V248zm6.299-12.852 6.048 9.108h.036v-9.108h2.268V248h-2.214l-6.606-9.954h-.036V248h-2.286v-12.852zm8.77 6.408c0-3.96 2.538-6.624 6.21-6.624 3.096 0 4.86 1.692 5.364 4.23h-2.357c-.306-1.44-1.278-2.34-3.006-2.34-2.394 0-3.78 1.818-3.78 4.734 0 2.934 1.35 4.77 3.744 4.77 1.89 0 3.185-1.116 3.185-2.7v-.45h-2.483v-1.728h4.86V248h-1.855l-.162-1.836c-.468 1.224-2.105 2.052-3.69 2.052-3.6 0-6.03-2.682-6.03-6.66m13.764 2.556h2.304c.162 1.746 1.674 2.34 3.276 2.34 1.53 0 2.718-.684 2.718-1.98 0-.936-.558-1.458-2.106-1.746l-2.358-.432c-1.89-.342-3.42-1.242-3.42-3.492 0-2.286 2.016-3.87 4.824-3.87 3.06 0 4.896 1.332 5.148 3.744h-2.25c-.162-1.26-1.278-1.962-2.88-1.962-1.548 0-2.52.81-2.52 1.944 0 1.062.666 1.404 2.052 1.674l2.484.486c2.106.396 3.366 1.44 3.366 3.51 0 2.34-2.142 3.888-4.986 3.888-3.06 0-5.418-1.278-5.652-4.104M91.9 248v-10.962H87.29v-1.89h11.61v1.89h-4.626V248zm18.156-6.426c0 3.87-2.358 6.642-6.138 6.642s-6.138-2.772-6.138-6.642c0-3.852 2.358-6.642 6.138-6.642s6.138 2.79 6.138 6.642m-2.43 0c0-2.844-1.26-4.752-3.708-4.752-2.466 0-3.708 1.908-3.708 4.752 0 2.862 1.242 4.752 3.708 4.752 2.448 0 3.708-1.89 3.708-4.752m5.16 6.426h-2.34v-12.852h5.508c3.006 0 4.77 1.404 4.77 4.032 0 1.998-1.278 3.186-2.736 3.654L121.21 248h-2.61l-2.934-4.806h-2.88zm0-6.678h2.898c1.782 0 2.682-.738 2.682-2.142s-.9-2.142-2.682-2.142h-2.898zm8.622 6.678v-12.852h2.394V248zm12.814 0h-9.306v-12.852h9.234v1.89h-6.894v3.582h6.102v1.89h-6.102v3.6h6.966zm-.157-3.888h2.304c.162 1.746 1.674 2.34 3.276 2.34 1.53 0 2.718-.684 2.718-1.98 0-.936-.558-1.458-2.106-1.746l-2.358-.432c-1.89-.342-3.42-1.242-3.42-3.492 0-2.286 2.016-3.87 4.824-3.87 3.06 0 4.896 1.332 5.148 3.744h-2.25c-.162-1.26-1.278-1.962-2.88-1.962-1.548 0-2.52.81-2.52 1.944 0 1.062.666 1.404 2.052 1.674l2.484.486c2.106.396 3.366 1.44 3.366 3.51 0 2.34-2.142 3.888-4.986 3.888-3.06 0-5.418-1.278-5.652-4.104M145.068 248v-2.682h2.682V248z"/></svg>