<svg width="428" height="250" viewBox="0 0 428 250" fill="none" xmlns="http://www.w3.org/2000/svg">
<path d="M27.7664 85.7454V185H4.14424V62.7449H27.7664V79.7363C29.6313 68.3396 35.6405 61.0872 46.0011 61.0872C56.9833 61.0872 62.5781 70.2045 62.5781 80.9795V185H38.9559V85.7454C38.9559 81.1867 37.2982 77.8713 33.5684 77.8713C30.0458 77.8713 27.7664 81.1867 27.7664 85.7454ZM128.319 137.341V157.441C128.319 176.297 117.337 186.658 100.138 186.658C81.9038 186.658 70.5072 176.09 70.5072 157.234V90.7185C70.5072 71.8622 81.9038 61.0872 99.5168 61.0872C117.337 61.0872 128.319 71.655 128.319 90.7185V127.188H94.5438V157.234C94.5438 164.072 96.8231 168.423 103.039 168.423C108.634 168.423 111.535 163.864 111.535 154.954V137.341H128.319ZM94.5438 88.0247V111.854H104.697V88.0247C104.697 82.0156 103.661 77.6641 99.5168 77.6641C95.5798 77.6641 94.5438 82.0156 94.5438 88.0247ZM169.731 185L160.614 149.567H160.199L151.082 185H129.325L148.181 121.593L131.19 62.7449H154.397L161.857 94.0339H162.271L169.731 62.7449H191.281L174.29 120.557L192.939 185H169.731ZM231.184 161.999V62.7449H255.013V185H231.184V168.009C229.526 179.405 223.517 186.658 213.157 186.658C202.174 186.658 196.787 177.54 196.787 166.765V62.7449H220.409V161.999C220.409 166.558 221.859 169.874 225.382 169.874C229.112 169.874 231.184 166.558 231.184 161.999ZM285.741 134.44L274.966 125.737C266.884 118.899 261.911 112.061 261.911 101.286V89.8896C261.911 71.2406 272.686 61.0872 290.092 61.0872C307.498 61.0872 316.615 71.655 316.615 88.4392V108.746H295.272V88.0247C295.272 82.0156 294.029 77.6641 290.092 77.6641C286.155 77.6641 285.119 82.0156 285.119 88.0247V97.9709C285.119 104.394 288.434 107.295 293.615 112.269L304.39 121.593C312.264 128.017 317.237 135.062 317.237 146.666V158.477C317.237 177.126 306.255 186.658 288.642 186.658C271.029 186.658 261.497 176.09 261.497 159.306V137.963H283.047V159.927C283.047 165.936 284.705 170.081 288.642 170.081C292.579 170.081 293.822 165.936 293.822 159.927V148.323C293.822 142.936 291.335 139.413 285.741 134.44Z" fill="#050505"/>
<path d="M3.798 212H1.458V199.148H6.966C9.972 199.148 11.736 200.552 11.736 203.18C11.736 205.178 10.458 206.366 9 206.834L12.222 212H9.612L6.678 207.194H3.798V212ZM3.798 205.322H6.696C8.478 205.322 9.378 204.584 9.378 203.18C9.378 201.776 8.478 201.038 6.696 201.038H3.798V205.322ZM21.7257 212H12.4197V199.148H21.6537V201.038H14.7597V204.62H20.8617V206.51H14.7597V210.11H21.7257V212ZM22.4498 212V199.148H24.8438V212H22.4498ZM33.5904 212H31.8624L28.1904 201.902H28.1544V212H25.9584V199.148H29.3424L32.7984 208.814H32.8344L36.2904 199.148H39.5664V212H37.2804V201.902H37.2444L33.5904 212ZM50.0054 212L48.7994 208.85H43.0034L41.7794 212H39.4394L44.6054 199.148H47.2874L52.4534 212H50.0054ZM45.9014 201.452L43.7414 206.996H48.0794L45.9554 201.452H45.9014ZM51.1349 205.556C51.1349 201.596 53.6729 198.932 57.3449 198.932C60.4409 198.932 62.2049 200.624 62.7089 203.162H60.3509C60.0449 201.722 59.0729 200.822 57.3449 200.822C54.9509 200.822 53.5649 202.64 53.5649 205.556C53.5649 208.49 54.9149 210.326 57.3089 210.326C59.1989 210.326 60.4949 209.21 60.4949 207.626V207.176H58.0109V205.448H62.8709V212H61.0169L60.8549 210.164C60.3869 211.388 58.7489 212.216 57.1649 212.216C53.5649 212.216 51.1349 209.534 51.1349 205.556ZM63.7654 212V199.148H66.1594V212H63.7654ZM70.064 199.148L76.112 208.256H76.148V199.148H78.416V212H76.202L69.596 202.046H69.56V212H67.274V199.148H70.064ZM79.5365 212V199.148H81.9305V212H79.5365ZM85.8351 199.148L91.8831 208.256H91.9191V199.148H94.1871V212H91.9731L85.3671 202.046H85.3311V212H83.0451V199.148H85.8351ZM94.6056 205.556C94.6056 201.596 97.1436 198.932 100.816 198.932C103.912 198.932 105.676 200.624 106.18 203.162H103.822C103.516 201.722 102.544 200.822 100.816 200.822C98.4216 200.822 97.0356 202.64 97.0356 205.556C97.0356 208.49 98.3856 210.326 100.78 210.326C102.67 210.326 103.966 209.21 103.966 207.626V207.176H101.482V205.448H106.342V212H104.488L104.326 210.164C103.858 211.388 102.22 212.216 100.636 212.216C97.0356 212.216 94.6056 209.534 94.6056 205.556ZM113.049 212V201.038H108.441V199.148H120.051V201.038H115.425V212H113.049ZM120.388 212V199.148H122.782V204.548H129.37V199.148H131.746V212H129.37V206.42H122.782V212H120.388ZM142.168 212H132.862V199.148H142.096V201.038H135.202V204.62H141.304V206.51H135.202V210.11H142.168V212ZM152.503 212H150.775L147.103 201.902H147.067V212H144.871V199.148H148.255L151.711 208.814H151.747L155.203 199.148H158.479V212H156.193V201.902H156.157L152.503 212ZM168.918 212L167.712 208.85H161.916L160.692 212H158.352L163.518 199.148H166.2L171.366 212H168.918ZM164.814 201.452L162.654 206.996H166.992L164.868 201.452H164.814ZM170.047 205.556C170.047 201.596 172.585 198.932 176.257 198.932C179.353 198.932 181.117 200.624 181.621 203.162H179.263C178.957 201.722 177.985 200.822 176.257 200.822C173.863 200.822 172.477 202.64 172.477 205.556C172.477 208.49 173.827 210.326 176.221 210.326C178.111 210.326 179.407 209.21 179.407 207.626V207.176H176.923V205.448H181.783V212H179.929L179.767 210.164C179.299 211.388 177.661 212.216 176.077 212.216C172.477 212.216 170.047 209.534 170.047 205.556ZM191.984 212L190.778 208.85H184.982L183.758 212H181.418L186.584 199.148H189.266L194.432 212H191.984ZM187.88 201.452L185.72 206.996H190.058L187.934 201.452H187.88ZM204.082 200.948L196.648 210.11H204.19V212H193.696V210.326L201.166 201.038H193.93V199.148H204.082V200.948ZM204.707 212V199.148H207.101V212H204.707ZM211.005 199.148L217.053 208.256H217.089V199.148H219.357V212H217.143L210.537 202.046H210.501V212H208.215V199.148H211.005ZM229.784 212H220.478V199.148H229.712V201.038H222.818V204.62H228.92V206.51H222.818V210.11H229.784V212ZM232.487 212V199.148H241.361V201.038H234.881V204.962H240.695V206.852H234.881V212H232.487ZM253.371 205.574C253.371 209.444 251.013 212.216 247.233 212.216C243.453 212.216 241.095 209.444 241.095 205.574C241.095 201.722 243.453 198.932 247.233 198.932C251.013 198.932 253.371 201.722 253.371 205.574ZM250.941 205.574C250.941 202.73 249.681 200.822 247.233 200.822C244.767 200.822 243.525 202.73 243.525 205.574C243.525 208.436 244.767 210.326 247.233 210.326C249.681 210.326 250.941 208.436 250.941 205.574ZM256.1 212H253.76V199.148H259.268C262.274 199.148 264.038 200.552 264.038 203.18C264.038 205.178 262.76 206.366 261.302 206.834L264.524 212H261.914L258.98 207.194H256.1V212ZM256.1 205.322H258.998C260.78 205.322 261.68 204.584 261.68 203.18C261.68 201.776 260.78 201.038 258.998 201.038H256.1V205.322ZM270.535 212V201.038H265.927V199.148H277.537V201.038H272.911V212H270.535ZM277.874 212V199.148H280.268V204.548H286.856V199.148H289.232V212H286.856V206.42H280.268V212H277.874ZM299.653 212H290.347V199.148H299.581V201.038H292.687V204.62H298.789V206.51H292.687V210.11H299.653V212ZM307.307 199.148C311.177 199.148 313.733 201.722 313.733 205.574C313.733 209.444 311.177 212 307.307 212H302.357V199.148H307.307ZM307.307 201.038H304.697V210.11H307.307C309.863 210.11 311.285 208.436 311.285 205.574C311.285 202.712 309.863 201.038 307.307 201.038ZM314.127 212V199.148H316.521V212H314.127ZM316.934 205.556C316.934 201.596 319.472 198.932 323.144 198.932C326.24 198.932 328.004 200.624 328.508 203.162H326.15C325.844 201.722 324.872 200.822 323.144 200.822C320.75 200.822 319.364 202.64 319.364 205.556C319.364 208.49 320.714 210.326 323.108 210.326C324.998 210.326 326.294 209.21 326.294 207.626V207.176H323.81V205.448H328.67V212H326.816L326.654 210.164C326.186 211.388 324.548 212.216 322.964 212.216C319.364 212.216 316.934 209.534 316.934 205.556ZM329.564 212V199.148H331.958V212H329.564ZM336.907 212V201.038H332.299V199.148H343.909V201.038H339.283V212H336.907ZM352.339 212L351.133 208.85H345.337L344.113 212H341.773L346.939 199.148H349.621L354.787 212H352.339ZM348.235 201.452L346.075 206.996H350.413L348.289 201.452H348.235ZM354.662 212V199.148H357.056V210.11H363.68V212H354.662ZM375.538 212L374.332 208.85H368.536L367.312 212H364.972L370.138 199.148H372.82L377.986 212H375.538ZM371.434 201.452L369.274 206.996H373.612L371.488 201.452H371.434ZM376.668 205.556C376.668 201.596 379.206 198.932 382.878 198.932C385.974 198.932 387.738 200.624 388.242 203.162H385.884C385.578 201.722 384.606 200.822 382.878 200.822C380.484 200.822 379.098 202.64 379.098 205.556C379.098 208.49 380.448 210.326 382.842 210.326C384.732 210.326 386.028 209.21 386.028 207.626V207.176H383.544V205.448H388.404V212H386.55L386.388 210.164C385.92 211.388 384.282 212.216 382.698 212.216C379.098 212.216 376.668 209.534 376.668 205.556ZM398.604 212H389.298V199.148H398.532V201.038H391.638V204.62H397.74V206.51H391.638V210.11H398.604V212ZM399.877 212V209.318H402.559V212H399.877ZM7.092 230H1.458V217.148H6.624C9.63 217.148 11.268 218.354 11.268 220.658C11.268 221.792 10.368 223.034 9.324 223.34C10.728 223.718 11.79 224.852 11.79 226.346C11.79 228.758 10.062 230 7.092 230ZM3.798 222.584H6.606C8.208 222.584 8.964 221.864 8.964 220.748C8.964 219.578 8.19 218.912 6.624 218.912H3.798V222.584ZM3.798 224.294V228.236H6.912C8.568 228.236 9.432 227.498 9.432 226.256C9.432 225.05 8.55 224.294 6.894 224.294H3.798ZM23.8531 223.574C23.8531 227.444 21.4951 230.216 17.7151 230.216C13.9351 230.216 11.5771 227.444 11.5771 223.574C11.5771 219.722 13.9351 216.932 17.7151 216.932C21.4951 216.932 23.8531 219.722 23.8531 223.574ZM21.4231 223.574C21.4231 220.73 20.1631 218.822 17.7151 218.822C15.2491 218.822 14.0071 220.73 14.0071 223.574C14.0071 226.436 15.2491 228.326 17.7151 228.326C20.1631 228.326 21.4231 226.436 21.4231 223.574ZM24.2428 230V217.148H26.6368V228.11H33.2608V230H24.2428ZM38.7834 217.148C42.6534 217.148 45.2094 219.722 45.2094 223.574C45.2094 227.444 42.6534 230 38.7834 230H33.8334V217.148H38.7834ZM38.7834 219.038H36.1734V228.11H38.7834C41.3394 228.11 42.7614 226.436 42.7614 223.574C42.7614 220.712 41.3394 219.038 38.7834 219.038ZM47.583 230V217.148H49.977V230H47.583ZM56.0416 217.148C59.9116 217.148 62.4676 219.722 62.4676 223.574C62.4676 227.444 59.9116 230 56.0416 230H51.0916V217.148H56.0416ZM56.0416 219.038H53.4316V228.11H56.0416C58.5976 228.11 60.0196 226.436 60.0196 223.574C60.0196 220.712 58.5976 219.038 56.0416 219.038ZM72.1679 230H62.8619V217.148H72.0959V219.038H65.2019V222.62H71.3039V224.51H65.2019V228.11H72.1679V230ZM82.198 230L80.992 226.85H75.196L73.972 230H71.632L76.798 217.148H79.48L84.646 230H82.198ZM78.094 219.452L75.934 224.996H80.272L78.148 219.452H78.094ZM83.6405 226.112H85.9445C86.1065 227.858 87.6185 228.452 89.2205 228.452C90.7505 228.452 91.9385 227.768 91.9385 226.472C91.9385 225.536 91.3805 225.014 89.8325 224.726L87.4745 224.294C85.5845 223.952 84.0545 223.052 84.0545 220.802C84.0545 218.516 86.0705 216.932 88.8785 216.932C91.9385 216.932 93.7745 218.264 94.0265 220.676H91.7765C91.6145 219.416 90.4985 218.714 88.8965 218.714C87.3485 218.714 86.3765 219.524 86.3765 220.658C86.3765 221.72 87.0425 222.062 88.4285 222.332L90.9125 222.818C93.0185 223.214 94.2785 224.258 94.2785 226.328C94.2785 228.668 92.1365 230.216 89.2925 230.216C86.2325 230.216 83.8745 228.938 83.6405 226.112ZM94.643 229.928V227.318H97.325V230.18C97.325 231.98 96.155 233.006 94.247 233.006V231.764C95.219 231.764 95.867 231.422 95.867 230.18V229.928H94.643ZM100.567 230V217.148H109.441V219.038H102.961V222.962H108.775V224.852H102.961V230H100.567ZM112.445 230H110.105V217.148H115.613C118.619 217.148 120.383 218.552 120.383 221.18C120.383 223.178 119.105 224.366 117.647 224.834L120.869 230H118.259L115.325 225.194H112.445V230ZM112.445 223.322H115.343C117.125 223.322 118.025 222.584 118.025 221.18C118.025 219.776 117.125 219.038 115.343 219.038H112.445V223.322ZM130.373 230H121.067V217.148H130.301V219.038H123.407V222.62H129.509V224.51H123.407V228.11H130.373V230ZM130.216 226.112H132.52C132.682 227.858 134.194 228.452 135.796 228.452C137.326 228.452 138.514 227.768 138.514 226.472C138.514 225.536 137.956 225.014 136.408 224.726L134.05 224.294C132.16 223.952 130.63 223.052 130.63 220.802C130.63 218.516 132.646 216.932 135.454 216.932C138.514 216.932 140.35 218.264 140.602 220.676H138.352C138.19 219.416 137.074 218.714 135.472 218.714C133.924 218.714 132.952 219.524 132.952 220.658C132.952 221.72 133.618 222.062 135.004 222.332L137.488 222.818C139.594 223.214 140.854 224.258 140.854 226.328C140.854 228.668 138.712 230.216 135.868 230.216C132.808 230.216 130.45 228.938 130.216 226.112ZM141.267 230V217.148H143.661V222.548H150.249V217.148H152.625V230H150.249V224.42H143.661V230H141.267ZM161.048 225.266H158.06V230H155.72V217.148H161.03C164.072 217.148 165.836 218.534 165.836 221.216C165.836 223.898 164.072 225.266 161.048 225.266ZM158.06 223.394H160.832C162.596 223.394 163.478 222.674 163.478 221.216C163.478 219.74 162.596 219.038 160.832 219.038H158.06V223.394ZM175.373 230H166.067V217.148H175.301V219.038H168.407V222.62H174.509V224.51H168.407V228.11H175.373V230ZM178.437 230H176.097V217.148H181.605C184.611 217.148 186.375 218.552 186.375 221.18C186.375 223.178 185.097 224.366 183.639 224.834L186.861 230H184.251L181.317 225.194H178.437V230ZM178.437 223.322H181.335C183.117 223.322 184.017 222.584 184.017 221.18C184.017 219.776 183.117 219.038 181.335 219.038H178.437V223.322ZM186.212 226.112H188.516C188.678 227.858 190.19 228.452 191.792 228.452C193.322 228.452 194.51 227.768 194.51 226.472C194.51 225.536 193.952 225.014 192.404 224.726L190.046 224.294C188.156 223.952 186.626 223.052 186.626 220.802C186.626 218.516 188.642 216.932 191.45 216.932C194.51 216.932 196.346 218.264 196.598 220.676H194.348C194.186 219.416 193.07 218.714 191.468 218.714C189.92 218.714 188.948 219.524 188.948 220.658C188.948 221.72 189.614 222.062 191 222.332L193.484 222.818C195.59 223.214 196.85 224.258 196.85 226.328C196.85 228.668 194.708 230.216 191.864 230.216C188.804 230.216 186.446 228.938 186.212 226.112ZM202.592 225.266H199.604V230H197.264V217.148H202.574C205.616 217.148 207.38 218.534 207.38 221.216C207.38 223.898 205.616 225.266 202.592 225.266ZM199.604 223.394H202.376C204.14 223.394 205.022 222.674 205.022 221.216C205.022 219.74 204.14 219.038 202.376 219.038H199.604V223.394ZM216.917 230H207.611V217.148H216.845V219.038H209.951V222.62H216.053V224.51H209.951V228.11H216.917V230ZM219.369 223.556C219.369 226.49 220.665 228.326 222.987 228.326C224.823 228.326 225.669 227.282 225.921 225.968H228.243C227.793 228.47 226.065 230.216 222.987 230.216C219.387 230.216 216.939 227.552 216.939 223.556C216.939 219.596 219.387 216.932 222.987 216.932C226.065 216.932 227.793 218.66 228.243 221.18H225.921C225.669 219.866 224.823 218.822 222.987 218.822C220.665 218.822 219.369 220.64 219.369 223.556ZM232.208 230V219.038H227.6V217.148H239.21V219.038H234.584V230H232.208ZM239.547 230V217.148H241.941V230H239.547ZM246.871 230L241.795 217.148H244.333L248.239 227.444H248.275L252.199 217.148H254.629L249.535 230H246.871ZM263.815 230H254.509V217.148H263.743V219.038H256.849V222.62H262.951V224.51H256.849V228.11H263.815V230ZM263.658 226.112H265.962C266.124 227.858 267.636 228.452 269.238 228.452C270.768 228.452 271.956 227.768 271.956 226.472C271.956 225.536 271.398 225.014 269.85 224.726L267.492 224.294C265.602 223.952 264.072 223.052 264.072 220.802C264.072 218.516 266.088 216.932 268.896 216.932C271.956 216.932 273.792 218.264 274.044 220.676H271.794C271.632 219.416 270.516 218.714 268.914 218.714C267.366 218.714 266.394 219.524 266.394 220.658C266.394 221.72 267.06 222.062 268.446 222.332L270.93 222.818C273.036 223.214 274.296 224.258 274.296 226.328C274.296 228.668 272.154 230.216 269.31 230.216C266.25 230.216 263.892 228.938 263.658 226.112ZM274.661 229.928V227.318H277.343V230.18C277.343 231.98 276.173 233.006 274.265 233.006V231.764C275.237 231.764 275.885 231.422 275.885 230.18V229.928H274.661ZM289.891 230L288.685 226.85H282.889L281.665 230H279.325L284.491 217.148H287.173L292.339 230H289.891ZM285.787 219.452L283.627 224.996H287.965L285.841 219.452H285.787ZM295.004 217.148L301.052 226.256H301.088V217.148H303.356V230H301.142L294.536 220.046H294.5V230H292.214V217.148H295.004ZM309.427 217.148C313.297 217.148 315.853 219.722 315.853 223.574C315.853 227.444 313.297 230 309.427 230H304.477V217.148H309.427ZM309.427 219.038H306.817V228.11H309.427C311.983 228.11 313.405 226.436 313.405 223.574C313.405 220.712 311.983 219.038 309.427 219.038ZM319.954 223.556C319.954 226.49 321.25 228.326 323.572 228.326C325.408 228.326 326.254 227.282 326.506 225.968H328.828C328.378 228.47 326.65 230.216 323.572 230.216C319.972 230.216 317.524 227.552 317.524 223.556C317.524 219.596 319.972 216.932 323.572 216.932C326.65 216.932 328.378 218.66 328.828 221.18H326.506C326.254 219.866 325.408 218.822 323.572 218.822C321.25 218.822 319.954 220.64 319.954 223.556ZM339.953 224.816C339.953 228.326 337.937 230.216 334.463 230.216C331.007 230.216 328.973 228.326 328.973 224.78V217.148H331.367V224.798C331.367 227.048 332.393 228.308 334.463 228.308C336.533 228.308 337.577 227.048 337.577 224.798V217.148H339.953V224.816ZM340.906 230V217.148H343.3V228.11H349.924V230H340.906ZM352.274 230V219.038H347.666V217.148H359.276V219.038H354.65V230H352.274ZM370.43 224.816C370.43 228.326 368.414 230.216 364.94 230.216C361.484 230.216 359.45 228.326 359.45 224.78V217.148H361.844V224.798C361.844 227.048 362.87 228.308 364.94 228.308C367.01 228.308 368.054 227.048 368.054 224.798V217.148H370.43V224.816ZM373.723 230H371.383V217.148H376.891C379.897 217.148 381.661 218.552 381.661 221.18C381.661 223.178 380.383 224.366 378.925 224.834L382.147 230H379.537L376.603 225.194H373.723V230ZM373.723 223.322H376.621C378.403 223.322 379.303 222.584 379.303 221.18C379.303 219.776 378.403 219.038 376.621 219.038H373.723V223.322ZM391.65 230H382.344V217.148H391.578V219.038H384.684V222.62H390.786V224.51H384.684V228.11H391.65V230ZM392.482 225.842V223.916H397.522V225.842H392.482ZM6.408 235.148C10.278 235.148 12.834 237.722 12.834 241.574C12.834 245.444 10.278 248 6.408 248H1.458V235.148H6.408ZM6.408 237.038H3.798V246.11H6.408C8.964 246.11 10.386 244.436 10.386 241.574C10.386 238.712 8.964 237.038 6.408 237.038ZM22.5343 248H13.2283V235.148H22.4623V237.038H15.5683V240.62H21.6703V242.51H15.5683V246.11H22.5343V248ZM23.2584 248V235.148H32.1324V237.038H25.6524V240.962H31.4664V242.852H25.6524V248H23.2584ZM32.7963 248V235.148H35.1903V248H32.7963ZM39.0949 235.148L45.1429 244.256H45.1789V235.148H47.4469V248H45.2329L38.6269 238.046H38.5909V248H36.3049V235.148H39.0949ZM48.5674 248V235.148H50.9614V248H48.5674ZM54.866 235.148L60.914 244.256H60.95V235.148H63.218V248H61.004L54.398 238.046H54.362V248H52.076V235.148H54.866ZM63.6365 241.556C63.6365 237.596 66.1745 234.932 69.8465 234.932C72.9425 234.932 74.7065 236.624 75.2105 239.162H72.8525C72.5465 237.722 71.5745 236.822 69.8465 236.822C67.4525 236.822 66.0665 238.64 66.0665 241.556C66.0665 244.49 67.4165 246.326 69.8105 246.326C71.7005 246.326 72.9965 245.21 72.9965 243.626V243.176H70.5125V241.448H75.3725V248H73.5185L73.3565 246.164C72.8885 247.388 71.2505 248.216 69.6665 248.216C66.0665 248.216 63.6365 245.534 63.6365 241.556ZM77.4003 244.112H79.7043C79.8663 245.858 81.3783 246.452 82.9803 246.452C84.5103 246.452 85.6983 245.768 85.6983 244.472C85.6983 243.536 85.1403 243.014 83.5923 242.726L81.2343 242.294C79.3443 241.952 77.8143 241.052 77.8143 238.802C77.8143 236.516 79.8303 234.932 82.6383 234.932C85.6983 234.932 87.5343 236.264 87.7863 238.676H85.5363C85.3743 237.416 84.2583 236.714 82.6563 236.714C81.1083 236.714 80.1363 237.524 80.1363 238.658C80.1363 239.72 80.8023 240.062 82.1883 240.332L84.6723 240.818C86.7783 241.214 88.0383 242.258 88.0383 244.328C88.0383 246.668 85.8963 248.216 83.0523 248.216C79.9923 248.216 77.6343 246.938 77.4003 244.112ZM91.8994 248V237.038H87.2914V235.148H98.9014V237.038H94.2754V248H91.8994ZM110.056 241.574C110.056 245.444 107.698 248.216 103.918 248.216C100.138 248.216 97.7802 245.444 97.7802 241.574C97.7802 237.722 100.138 234.932 103.918 234.932C107.698 234.932 110.056 237.722 110.056 241.574ZM107.626 241.574C107.626 238.73 106.366 236.822 103.918 236.822C101.452 236.822 100.21 238.73 100.21 241.574C100.21 244.436 101.452 246.326 103.918 246.326C106.366 246.326 107.626 244.436 107.626 241.574ZM112.786 248H110.446V235.148H115.954C118.96 235.148 120.724 236.552 120.724 239.18C120.724 241.178 119.446 242.366 117.988 242.834L121.21 248H118.6L115.666 243.194H112.786V248ZM112.786 241.322H115.684C117.466 241.322 118.366 240.584 118.366 239.18C118.366 237.776 117.466 237.038 115.684 237.038H112.786V241.322ZM121.408 248V235.148H123.802V248H121.408ZM134.222 248H124.916V235.148H134.15V237.038H127.256V240.62H133.358V242.51H127.256V246.11H134.222V248ZM134.065 244.112H136.369C136.531 245.858 138.043 246.452 139.645 246.452C141.175 246.452 142.363 245.768 142.363 244.472C142.363 243.536 141.805 243.014 140.257 242.726L137.899 242.294C136.009 241.952 134.479 241.052 134.479 238.802C134.479 236.516 136.495 234.932 139.303 234.932C142.363 234.932 144.199 236.264 144.451 238.676H142.201C142.039 237.416 140.923 236.714 139.321 236.714C137.773 236.714 136.801 237.524 136.801 238.658C136.801 239.72 137.467 240.062 138.853 240.332L141.337 240.818C143.443 241.214 144.703 242.258 144.703 244.328C144.703 246.668 142.561 248.216 139.717 248.216C136.657 248.216 134.299 246.938 134.065 244.112ZM145.068 248V245.318H147.75V248H145.068Z" fill="black"/>
</svg>
